{"glyphs":{"0":{"ha":803,"x_min":89,"x_max":714,"o":"m 89 213 l 89 746 q 301 958 89 958 l 501 958 q 714 746 714 958 l 714 213 q 501 0 714 0 l 301 0 q 89 213 89 0 m 206 200 q 300 106 206 106 l 503 106 q 597 200 597 106 l 597 758 q 503 853 597 853 l 300 853 q 206 758 206 853 l 206 200 z "},"1":{"ha":803,"x_min":128,"x_max":697,"o":"m 128 0 l 128 106 l 365 106 l 365 853 l 176 853 l 176 910 l 239 958 l 482 958 l 482 106 l 697 106 l 697 0 l 128 0 z "},"2":{"ha":803,"x_min":89,"x_max":714,"o":"m 89 0 l 89 292 q 242 497 89 467 l 526 554 q 597 647 597 568 l 597 758 q 503 853 597 853 l 117 853 l 117 910 l 179 958 l 501 958 q 714 746 714 958 l 714 656 q 561 450 714 481 l 276 393 q 206 300 206 379 l 206 106 l 714 106 l 714 0 l 89 0 z "},"3":{"ha":803,"x_min":103,"x_max":714,"o":"m 103 49 l 103 106 l 503 106 q 597 200 597 106 l 597 356 q 503 450 597 450 l 206 450 l 206 556 l 503 556 q 597 650 597 556 l 597 758 q 503 853 597 853 l 117 853 l 117 910 l 179 958 l 501 958 q 714 746 714 958 l 714 644 q 679 554 714 589 l 631 506 l 679 457 q 714 367 714 422 l 714 213 q 501 0 714 0 l 165 0 l 103 49 z "},"4":{"ha":803,"x_min":89,"x_max":714,"o":"m 89 179 l 89 276 l 410 958 l 507 958 l 522 931 l 218 285 l 597 285 l 597 597 l 714 597 l 714 0 l 597 0 l 597 179 l 89 179 z "},"5":{"ha":803,"x_min":75,"x_max":714,"o":"m 75 49 l 75 106 l 503 106 q 597 200 597 106 l 597 369 q 503 464 597 464 l 89 464 l 89 958 l 672 958 l 672 853 l 206 853 l 206 569 l 501 569 q 714 357 714 569 l 714 213 q 501 0 714 0 l 138 0 l 75 49 z "},"6":{"ha":803,"x_min":89,"x_max":714,"o":"m 89 213 l 89 703 q 344 958 89 958 l 596 958 l 658 910 l 658 853 l 339 853 q 206 719 206 853 l 206 569 l 501 569 q 714 357 714 569 l 714 213 q 501 0 714 0 l 301 0 q 89 213 89 0 m 206 200 q 300 106 206 106 l 503 106 q 597 200 597 106 l 597 369 q 503 464 597 464 l 206 464 l 206 200 z "},"7":{"ha":803,"x_min":89,"x_max":714,"o":"m 89 853 l 89 958 l 714 958 l 714 715 l 339 0 l 235 0 l 219 28 l 597 742 l 597 853 l 89 853 z "},"8":{"ha":803,"x_min":89,"x_max":714,"o":"m 89 213 l 89 367 q 124 457 89 422 l 172 506 l 124 554 q 89 644 89 589 l 89 746 q 301 958 89 958 l 501 958 q 714 746 714 958 l 714 644 q 679 554 714 589 l 631 506 l 679 457 q 714 367 714 422 l 714 213 q 501 0 714 0 l 301 0 q 89 213 89 0 m 206 200 q 300 106 206 106 l 503 106 q 597 200 597 106 l 597 356 q 503 450 597 450 l 300 450 q 206 356 206 450 l 206 200 m 206 650 q 300 556 206 556 l 503 556 q 597 650 597 556 l 597 758 q 503 853 597 853 l 300 853 q 206 758 206 853 l 206 650 z "},"9":{"ha":803,"x_min":89,"x_max":714,"o":"m 89 601 l 89 746 q 301 958 89 958 l 501 958 q 714 746 714 958 l 714 256 q 458 0 714 0 l 193 0 l 131 49 l 131 106 l 464 106 q 597 239 597 106 l 597 389 l 301 389 q 89 601 89 389 m 206 589 q 300 494 206 494 l 597 494 l 597 758 q 503 853 597 853 l 300 853 q 206 758 206 853 l 206 589 z "},"\u0000":{"ha":0,"x_min":0,"x_max":0,"o":""},"\r":{"ha":333,"x_min":0,"x_max":0,"o":""}," ":{"ha":333,"x_min":0,"x_max":0,"o":""},"!":{"ha":361,"x_min":111,"x_max":250,"o":"m 111 0 l 111 153 l 250 153 l 250 0 l 111 0 m 122 292 l 122 958 l 239 958 l 239 292 l 122 292 z "},"\"":{"ha":542,"x_min":97,"x_max":444,"o":"m 97 681 l 97 1028 l 200 1028 l 200 681 l 97 681 m 342 681 l 342 1028 l 444 1028 l 444 681 l 342 681 z "},"#":{"ha":931,"x_min":69,"x_max":861,"o":"m 69 264 l 69 361 l 256 361 l 256 597 l 69 597 l 69 694 l 256 694 l 256 958 l 358 958 l 358 694 l 572 694 l 572 958 l 675 958 l 675 694 l 861 694 l 861 597 l 675 597 l 675 361 l 861 361 l 861 264 l 675 264 l 675 0 l 572 0 l 572 264 l 358 264 l 358 0 l 256 0 l 256 264 l 69 264 m 358 361 l 572 361 l 572 597 l 358 597 l 358 361 z "},"$":{"ha":803,"x_min":96,"x_max":707,"o":"m 96 49 l 96 106 l 496 106 q 590 200 590 106 l 590 293 q 519 386 590 372 l 249 440 q 96 646 96 471 l 96 704 q 308 917 96 917 l 353 917 l 353 1083 l 450 1083 l 450 917 l 617 917 l 679 868 l 679 811 l 307 811 q 213 717 213 811 l 213 638 q 283 544 213 558 l 554 490 q 707 285 707 460 l 707 213 q 494 0 707 0 l 450 0 l 450 -167 l 353 -167 l 353 0 l 158 0 l 96 49 z "},"%":{"ha":1194,"x_min":56,"x_max":1139,"o":"m 56 528 l 56 819 q 194 958 56 958 l 306 958 q 444 819 444 958 l 444 528 q 306 389 444 389 l 194 389 q 56 528 56 389 m 144 514 q 189 469 144 469 l 311 469 q 356 514 356 469 l 356 833 q 311 878 356 878 l 189 878 q 144 833 144 878 l 144 514 m 326 42 l 785 958 l 868 917 l 410 0 l 326 42 z "},"&":{"ha":917,"x_min":97,"x_max":861,"o":"m 97 208 l 97 356 q 143 467 97 428 l 201 515 l 153 574 q 125 654 125 607 l 125 750 q 333 958 125 958 l 597 958 l 653 917 l 653 861 l 333 861 q 236 764 236 861 l 236 653 q 333 556 236 556 l 861 556 l 861 458 l 722 458 l 722 0 l 306 0 q 97 208 97 0 m 208 194 q 306 97 208 97 l 611 97 l 611 458 l 306 458 q 208 361 208 458 l 208 194 z "},"'":{"ha":297,"x_min":97,"x_max":200,"o":"m 97 681 l 97 1028 l 200 1028 l 200 681 l 97 681 z "},"(":{"ha":431,"x_min":97,"x_max":403,"o":"m 319 -264 q 97 403 97 32 q 319 1069 97 774 l 403 1006 q 213 403 213 740 q 403 -200 213 65 l 319 -264 z "},")":{"ha":431,"x_min":28,"x_max":333,"o":"m 28 -200 q 218 403 218 65 q 28 1006 218 740 l 111 1069 q 333 403 333 774 q 111 -264 333 32 l 28 -200 z "},"*":{"ha":694,"x_min":57,"x_max":638,"o":"m 57 717 l 83 796 l 303 729 l 303 958 l 392 958 l 392 729 l 611 796 l 638 717 l 421 643 l 553 456 l 485 407 l 347 588 l 210 407 l 142 456 l 274 643 l 57 717 z "},"+":{"ha":803,"x_min":89,"x_max":714,"o":"m 89 417 l 89 514 l 350 514 l 350 792 l 453 792 l 453 514 l 714 514 l 714 417 l 453 417 l 453 139 l 350 139 l 350 417 l 89 417 z "},",":{"ha":361,"x_min":44,"x_max":253,"o":"m 44 -174 l 115 153 l 240 153 l 253 133 l 128 -194 l 44 -174 z "},"-":{"ha":500,"x_min":56,"x_max":444,"o":"m 56 375 l 56 472 l 444 472 l 444 375 l 56 375 z "},".":{"ha":361,"x_min":111,"x_max":250,"o":"m 111 0 l 111 153 l 250 153 l 250 0 l 111 0 z "},"/":{"ha":542,"x_min":28,"x_max":514,"o":"m 28 -35 l 418 1028 l 514 993 l 124 -69 l 28 -35 z "},":":{"ha":361,"x_min":111,"x_max":250,"o":"m 111 0 l 111 153 l 250 153 l 250 0 l 111 0 m 111 569 l 111 722 l 250 722 l 250 569 l 111 569 z "},";":{"ha":361,"x_min":44,"x_max":253,"o":"m 44 -174 l 115 153 l 240 153 l 253 133 l 128 -194 l 44 -174 m 111 569 l 111 722 l 250 722 l 250 569 l 111 569 z "},"<":{"ha":803,"x_min":89,"x_max":714,"o":"m 89 411 l 89 519 l 672 799 l 714 711 l 189 465 l 714 219 l 672 132 l 89 411 z "},"=":{"ha":803,"x_min":89,"x_max":714,"o":"m 89 264 l 89 361 l 714 361 l 714 264 l 89 264 m 89 569 l 89 667 l 714 667 l 714 569 l 89 569 z "},">":{"ha":803,"x_min":89,"x_max":714,"o":"m 89 219 l 614 465 l 89 711 l 131 799 l 714 519 l 714 411 l 131 132 l 89 219 z "},"?":{"ha":694,"x_min":56,"x_max":625,"o":"m 56 853 l 56 910 l 118 958 l 413 958 q 625 746 625 958 l 625 621 q 413 408 625 408 l 353 408 l 353 292 l 236 292 l 236 514 l 414 514 q 508 608 508 514 l 508 758 q 414 853 508 853 l 56 853 m 225 0 l 225 153 l 364 153 l 364 0 l 225 0 z "},"@":{"ha":1111,"x_min":125,"x_max":986,"o":"m 125 10 l 125 754 q 329 958 125 958 l 986 958 l 986 83 l 639 83 q 431 292 431 83 l 431 472 q 639 681 431 681 l 883 681 l 883 869 l 329 869 q 228 768 228 869 l 228 -4 q 329 -106 228 -106 l 958 -106 l 958 -153 l 903 -194 l 329 -194 q 125 10 125 -194 m 542 278 q 639 181 542 181 l 875 181 l 875 583 l 639 583 q 542 486 542 583 l 542 278 z "},"A":{"ha":875,"x_min":28,"x_max":847,"o":"m 28 25 l 342 958 l 533 958 l 847 25 l 831 0 l 735 0 l 656 242 l 219 242 l 140 0 l 44 0 l 28 25 m 254 347 l 621 347 l 454 853 l 421 853 l 254 347 z "},"B":{"ha":894,"x_min":125,"x_max":806,"o":"m 125 0 l 125 958 l 565 958 q 778 746 778 958 l 778 650 q 750 569 778 603 l 701 511 l 760 463 q 806 351 806 425 l 806 213 q 593 0 806 0 l 125 0 m 242 106 l 594 106 q 689 200 689 106 l 689 356 q 594 450 689 450 l 242 450 l 242 106 m 242 556 l 567 556 q 661 650 661 556 l 661 758 q 567 853 661 853 l 242 853 l 242 556 z "},"C":{"ha":847,"x_min":111,"x_max":778,"o":"m 111 213 l 111 746 q 324 958 111 958 l 715 958 l 778 910 l 778 853 l 322 853 q 228 758 228 853 l 228 200 q 322 106 228 106 l 778 106 l 778 49 l 715 0 l 324 0 q 111 213 111 0 z "},"D":{"ha":944,"x_min":125,"x_max":847,"o":"m 125 0 l 125 958 l 500 958 q 847 611 847 958 l 847 347 q 500 0 847 0 l 125 0 m 242 106 l 507 106 q 731 329 731 106 l 731 629 q 507 853 731 853 l 242 853 l 242 106 z "},"E":{"ha":819,"x_min":125,"x_max":750,"o":"m 125 0 l 125 958 l 750 958 l 750 853 l 242 853 l 242 556 l 708 556 l 708 450 l 242 450 l 242 106 l 750 106 l 750 0 l 125 0 z "},"F":{"ha":792,"x_min":125,"x_max":750,"o":"m 125 0 l 125 958 l 750 958 l 750 853 l 242 853 l 242 514 l 708 514 l 708 408 l 242 408 l 242 0 l 125 0 z "},"G":{"ha":931,"x_min":111,"x_max":833,"o":"m 111 213 l 111 746 q 324 958 111 958 l 743 958 l 806 910 l 806 853 l 322 853 q 228 758 228 853 l 228 200 q 322 106 228 106 l 717 106 l 717 450 l 481 450 l 481 556 l 833 556 l 833 0 l 324 0 q 111 213 111 0 z "},"H":{"ha":972,"x_min":125,"x_max":847,"o":"m 125 0 l 125 958 l 242 958 l 242 556 l 731 556 l 731 958 l 847 958 l 847 0 l 731 0 l 731 450 l 242 450 l 242 0 l 125 0 z "},"I":{"ha":367,"x_min":125,"x_max":242,"o":"m 125 0 l 125 958 l 242 958 l 242 0 l 125 0 z "},"J":{"ha":839,"x_min":83,"x_max":722,"o":"m 83 213 l 83 361 l 200 361 l 200 200 q 294 106 200 106 l 511 106 q 606 200 606 106 l 606 853 l 292 853 l 292 958 l 722 958 l 722 213 q 510 0 722 0 l 296 0 q 83 213 83 0 z "},"K":{"ha":875,"x_min":125,"x_max":833,"o":"m 125 0 l 125 958 l 242 958 l 242 467 l 682 958 l 789 958 l 801 932 l 471 564 l 833 26 l 821 0 l 714 0 l 394 479 l 242 311 l 242 0 l 125 0 z "},"L":{"ha":742,"x_min":125,"x_max":708,"o":"m 125 0 l 125 958 l 242 958 l 242 106 l 708 106 l 708 0 l 125 0 z "},"M":{"ha":1208,"x_min":125,"x_max":1083,"o":"m 125 0 l 125 958 l 279 958 l 604 267 l 929 958 l 1083 958 l 1083 0 l 967 0 l 967 783 l 664 139 l 544 139 l 242 783 l 242 0 l 125 0 z "},"N":{"ha":1000,"x_min":125,"x_max":875,"o":"m 125 0 l 125 958 l 254 958 l 758 181 l 758 958 l 875 958 l 875 0 l 746 0 l 242 778 l 242 0 l 125 0 z "},"O":{"ha":972,"x_min":111,"x_max":861,"o":"m 111 213 l 111 746 q 324 958 111 958 l 649 958 q 861 746 861 958 l 861 213 q 649 0 861 0 l 324 0 q 111 213 111 0 m 228 200 q 322 106 228 106 l 650 106 q 744 200 744 106 l 744 758 q 650 853 744 853 l 322 853 q 228 758 228 853 l 228 200 z "},"P":{"ha":875,"x_min":125,"x_max":792,"o":"m 125 0 l 125 958 l 579 958 q 792 746 792 958 l 792 565 q 579 353 792 353 l 242 353 l 242 0 l 125 0 m 242 458 l 581 458 q 675 553 675 458 l 675 758 q 581 853 675 853 l 242 853 l 242 458 z "},"Q":{"ha":972,"x_min":111,"x_max":861,"o":"m 111 213 l 111 746 q 324 958 111 958 l 649 958 q 861 746 861 958 l 861 213 q 681 1 861 17 l 774 -181 l 758 -208 l 660 -208 l 554 0 l 324 0 q 111 213 111 0 m 228 200 q 322 106 228 106 l 650 106 q 744 200 744 106 l 744 758 q 650 853 744 853 l 322 853 q 228 758 228 853 l 228 200 z "},"R":{"ha":889,"x_min":125,"x_max":819,"o":"m 125 0 l 125 958 l 579 958 q 792 746 792 958 l 792 593 q 638 385 792 413 l 819 28 l 804 0 l 706 0 l 513 381 l 242 381 l 242 0 l 125 0 m 242 486 l 581 486 q 675 581 675 486 l 675 758 q 581 853 675 853 l 242 853 l 242 486 z "},"S":{"ha":806,"x_min":83,"x_max":722,"o":"m 83 49 l 83 106 l 511 106 q 606 200 606 106 l 606 314 q 535 407 606 393 l 236 467 q 83 672 83 497 l 83 746 q 296 958 83 958 l 632 958 l 694 910 l 694 853 l 294 853 q 200 758 200 853 l 200 664 q 271 571 200 585 l 569 511 q 722 306 722 481 l 722 213 q 510 0 722 0 l 146 0 l 83 49 z "},"T":{"ha":822,"x_min":33,"x_max":789,"o":"m 33 853 l 33 958 l 789 958 l 789 853 l 469 853 l 469 0 l 353 0 l 353 853 l 33 853 z "},"U":{"ha":956,"x_min":117,"x_max":839,"o":"m 117 213 l 117 958 l 233 958 l 233 200 q 328 106 233 106 l 628 106 q 722 200 722 106 l 722 958 l 839 958 l 839 213 q 626 0 839 0 l 329 0 q 117 213 117 0 z "},"V":{"ha":861,"x_min":28,"x_max":833,"o":"m 28 933 l 44 958 l 143 958 l 414 106 l 447 106 l 718 958 l 817 958 l 833 933 l 531 0 l 331 0 l 28 933 z "},"W":{"ha":1278,"x_min":42,"x_max":1236,"o":"m 42 933 l 60 958 l 154 958 l 351 106 l 372 106 l 582 853 l 696 853 l 906 106 l 926 106 l 1124 958 l 1218 958 l 1236 933 l 1015 0 l 821 0 l 639 665 l 457 0 l 263 0 l 42 933 z "},"X":{"ha":847,"x_min":42,"x_max":806,"o":"m 42 26 l 358 493 l 60 932 l 72 958 l 174 958 l 424 583 l 674 958 l 775 958 l 788 932 l 489 493 l 806 26 l 793 0 l 692 0 l 424 403 l 156 0 l 54 0 l 42 26 z "},"Y":{"ha":806,"x_min":28,"x_max":778,"o":"m 28 933 l 43 958 l 142 958 l 403 474 l 664 958 l 763 958 l 778 933 l 461 356 l 461 0 l 344 0 l 344 356 l 28 933 z "},"Z":{"ha":833,"x_min":69,"x_max":764,"o":"m 69 0 l 69 93 l 606 853 l 83 853 l 83 958 l 750 958 l 750 865 l 214 106 l 764 106 l 764 0 l 69 0 z "},"[":{"ha":472,"x_min":125,"x_max":431,"o":"m 125 -250 l 125 1056 l 431 1056 l 431 958 l 236 958 l 236 -153 l 431 -153 l 431 -250 l 125 -250 z "},"\\":{"ha":542,"x_min":28,"x_max":514,"o":"m 28 993 l 124 1028 l 514 -35 l 418 -69 l 28 993 z "},"]":{"ha":472,"x_min":42,"x_max":347,"o":"m 42 -153 l 236 -153 l 236 958 l 42 958 l 42 1056 l 347 1056 l 347 -250 l 42 -250 l 42 -153 z "},"^":{"ha":750,"x_min":56,"x_max":694,"o":"m 56 479 l 321 958 l 429 958 l 694 479 l 607 431 l 375 854 l 143 431 l 56 479 z "},"_":{"ha":806,"x_min":56,"x_max":750,"o":"m 56 -181 l 750 -181 l 750 -278 l 56 -278 l 56 -181 z "},"`":{"ha":694,"x_min":183,"x_max":433,"o":"m 183 985 l 256 1053 l 433 851 l 374 794 l 183 985 z "},"a":{"ha":753,"x_min":72,"x_max":647,"o":"m 282 0 q 72 210 72 0 q 282 419 72 419 l 536 419 l 536 528 q 439 625 536 625 l 142 625 l 142 681 l 197 722 l 439 722 q 647 514 647 722 l 647 0 l 282 0 m 183 194 q 281 97 183 97 l 536 97 l 536 322 l 281 322 q 183 225 183 322 l 183 194 z "},"b":{"ha":808,"x_min":111,"x_max":708,"o":"m 111 0 l 111 1028 l 222 1028 l 222 722 l 500 722 q 708 514 708 722 l 708 208 q 500 0 708 0 l 111 0 m 222 97 l 500 97 q 597 194 597 97 l 597 528 q 500 625 597 625 l 222 625 l 222 97 z "},"c":{"ha":700,"x_min":100,"x_max":636,"o":"m 100 208 l 100 514 q 308 722 100 722 l 581 722 l 636 681 l 636 625 l 308 625 q 211 528 211 625 l 211 194 q 308 97 211 97 l 636 97 l 636 42 l 581 0 l 308 0 q 100 208 100 0 z "},"d":{"ha":808,"x_min":100,"x_max":697,"o":"m 100 208 l 100 514 q 308 722 100 722 l 586 722 l 586 1028 l 697 1028 l 697 0 l 308 0 q 100 208 100 0 m 211 194 q 308 97 211 97 l 586 97 l 586 625 l 308 625 q 211 528 211 625 l 211 194 z "},"e":{"ha":797,"x_min":100,"x_max":697,"o":"m 100 208 l 100 514 q 308 722 100 722 l 489 722 q 697 514 697 722 l 697 314 l 211 314 l 211 194 q 308 97 211 97 l 669 97 l 669 42 l 614 0 l 308 0 q 100 208 100 0 m 211 411 l 586 411 l 586 528 q 489 625 586 625 l 308 625 q 211 528 211 625 l 211 411 z "},"f":{"ha":528,"x_min":111,"x_max":500,"o":"m 111 0 l 111 819 q 319 1028 111 1028 l 444 1028 l 500 986 l 500 931 l 319 931 q 222 833 222 931 l 222 722 l 486 722 l 486 625 l 222 625 l 222 0 l 111 0 z "},"g":{"ha":808,"x_min":100,"x_max":697,"o":"m 100 208 l 100 514 q 308 722 100 722 l 697 722 l 697 -69 q 489 -278 697 -278 l 211 -278 l 156 -236 l 156 -181 l 489 -181 q 586 -83 586 -181 l 586 0 l 308 0 q 100 208 100 0 m 211 194 q 308 97 211 97 l 586 97 l 586 625 l 308 625 q 211 528 211 625 l 211 194 z "},"h":{"ha":814,"x_min":111,"x_max":708,"o":"m 111 0 l 111 1028 l 222 1028 l 222 722 l 500 722 q 708 514 708 722 l 708 0 l 597 0 l 597 528 q 500 625 597 625 l 222 625 l 222 0 l 111 0 z "},"i":{"ha":333,"x_min":108,"x_max":225,"o":"m 108 853 l 108 981 l 225 981 l 225 853 l 108 853 m 111 0 l 111 722 l 222 722 l 222 0 l 111 0 z "},"j":{"ha":333,"x_min":-11,"x_max":225,"o":"m -11 -192 q 111 -67 111 -186 l 111 722 l 222 722 l 222 -56 q -11 -289 222 -289 l -11 -192 m 108 853 l 108 981 l 225 981 l 225 853 l 108 853 z "},"k":{"ha":733,"x_min":111,"x_max":694,"o":"m 111 0 l 111 1028 l 222 1028 l 222 354 l 557 722 l 665 722 l 675 701 l 417 419 l 694 21 l 685 0 l 576 0 l 343 339 l 222 208 l 222 0 l 111 0 z "},"l":{"ha":361,"x_min":106,"x_max":314,"o":"m 106 197 l 106 1028 l 217 1028 l 217 186 q 314 86 217 92 l 314 -11 q 106 197 106 -11 z "},"m":{"ha":1244,"x_min":111,"x_max":1139,"o":"m 111 0 l 111 722 l 931 722 q 1139 514 1139 722 l 1139 0 l 1028 0 l 1028 528 q 931 625 1028 625 l 681 625 l 681 0 l 569 0 l 569 625 l 222 625 l 222 0 l 111 0 z "},"n":{"ha":814,"x_min":111,"x_max":708,"o":"m 111 0 l 111 722 l 500 722 q 708 514 708 722 l 708 0 l 597 0 l 597 528 q 500 625 597 625 l 222 625 l 222 0 l 111 0 z "},"o":{"ha":811,"x_min":100,"x_max":711,"o":"m 100 208 l 100 514 q 308 722 100 722 l 503 722 q 711 514 711 722 l 711 208 q 503 0 711 0 l 308 0 q 100 208 100 0 m 211 194 q 308 97 211 97 l 503 97 q 600 194 600 97 l 600 528 q 503 625 600 625 l 308 625 q 211 528 211 625 l 211 194 z "},"p":{"ha":808,"x_min":111,"x_max":708,"o":"m 111 -278 l 111 722 l 500 722 q 708 514 708 722 l 708 208 q 500 0 708 0 l 222 0 l 222 -278 l 111 -278 m 222 97 l 500 97 q 597 194 597 97 l 597 528 q 500 625 597 625 l 222 625 l 222 97 z "},"q":{"ha":808,"x_min":100,"x_max":697,"o":"m 100 208 l 100 514 q 308 722 100 722 l 697 722 l 697 -278 l 586 -278 l 586 0 l 308 0 q 100 208 100 0 m 211 194 q 308 97 211 97 l 586 97 l 586 625 l 308 625 q 211 528 211 625 l 211 194 z "},"r":{"ha":517,"x_min":106,"x_max":481,"o":"m 106 0 l 106 639 q 286 722 154 722 l 425 722 l 481 681 l 481 625 l 286 625 q 217 600 239 625 l 217 0 l 106 0 z "},"s":{"ha":694,"x_min":83,"x_max":611,"o":"m 83 42 l 83 97 l 403 97 q 500 194 500 97 q 417 306 500 292 l 250 333 q 83 517 83 361 q 292 722 83 722 l 522 722 l 578 681 l 578 625 l 292 625 q 194 528 194 625 q 278 431 194 444 l 444 403 q 611 206 611 375 q 403 0 611 0 l 139 0 l 83 42 z "},"t":{"ha":544,"x_min":106,"x_max":494,"o":"m 106 208 l 106 958 l 217 958 l 217 722 l 481 722 l 481 625 l 217 625 l 217 194 q 314 97 217 97 l 494 97 l 494 42 l 439 0 l 314 0 q 106 208 106 0 z "},"u":{"ha":814,"x_min":106,"x_max":703,"o":"m 106 208 l 106 722 l 217 722 l 217 194 q 314 97 217 97 l 592 97 l 592 722 l 703 722 l 703 0 l 314 0 q 106 208 106 0 z "},"v":{"ha":722,"x_min":28,"x_max":694,"o":"m 28 703 l 40 722 l 136 722 l 347 97 l 375 97 l 586 722 l 682 722 l 694 703 l 451 0 l 271 0 l 28 703 z "},"w":{"ha":1100,"x_min":33,"x_max":1067,"o":"m 33 703 l 47 722 l 140 722 l 286 97 l 307 97 l 481 722 l 619 722 l 793 97 l 814 97 l 960 722 l 1053 722 l 1067 703 l 897 0 l 719 0 l 550 611 l 381 0 l 203 0 l 33 703 z "},"x":{"ha":722,"x_min":42,"x_max":681,"o":"m 42 21 l 297 368 l 51 701 l 61 722 l 164 722 l 361 449 l 558 722 l 661 722 l 671 701 l 425 368 l 681 21 l 671 0 l 568 0 l 361 288 l 154 0 l 51 0 l 42 21 z "},"y":{"ha":722,"x_min":28,"x_max":694,"o":"m 28 703 l 40 722 l 136 722 l 347 97 l 375 97 l 586 722 l 682 722 l 694 703 l 356 -278 l 260 -278 l 247 -258 l 340 0 l 271 0 l 28 703 z "},"z":{"ha":708,"x_min":69,"x_max":639,"o":"m 69 0 l 69 86 l 485 625 l 83 625 l 83 722 l 625 722 l 625 636 l 210 97 l 639 97 l 639 0 l 69 0 z "},"{":{"ha":528,"x_min":69,"x_max":486,"o":"m 69 375 l 69 431 l 194 556 l 194 847 q 403 1056 194 1056 l 486 1056 l 486 958 l 403 958 q 306 861 306 958 l 306 528 l 181 403 l 306 278 l 306 -56 q 403 -153 306 -153 l 486 -153 l 486 -250 l 403 -250 q 194 -42 194 -250 l 194 250 l 69 375 z "},"|":{"ha":381,"x_min":139,"x_max":242,"o":"m 139 -278 l 139 1028 l 242 1028 l 242 -278 l 139 -278 z "},"}":{"ha":528,"x_min":42,"x_max":458,"o":"m 42 -153 l 125 -153 q 222 -56 222 -153 l 222 278 l 347 403 l 222 528 l 222 861 q 125 958 222 958 l 42 958 l 42 1056 l 125 1056 q 333 847 333 1056 l 333 556 l 458 431 l 458 375 l 333 250 l 333 -42 q 125 -250 333 -250 l 42 -250 l 42 -153 z "},"~":{"ha":803,"x_min":68,"x_max":735,"o":"m 68 424 l 192 547 q 290 590 235 590 q 389 547 346 590 l 472 464 q 513 443 493 443 q 553 464 532 443 l 665 576 l 735 507 l 611 383 q 513 340 568 340 q 414 383 457 340 l 331 467 q 290 488 310 488 q 250 467 271 488 l 138 354 l 68 424 z "}," ":{"ha":333,"x_min":0,"x_max":0,"o":""},"¡":{"ha":361,"x_min":111,"x_max":250,"o":"m 111 569 l 111 722 l 250 722 l 250 569 l 111 569 m 122 -236 l 122 431 l 239 431 l 239 -236 l 122 -236 z "},"¢":{"ha":803,"x_min":131,"x_max":667,"o":"m 131 208 l 131 514 q 339 722 131 722 l 393 722 l 393 875 l 485 875 l 485 722 l 611 722 l 667 681 l 667 625 l 339 625 q 242 528 242 625 l 242 194 q 339 97 242 97 l 667 97 l 667 42 l 611 0 l 485 0 l 485 -153 l 393 -153 l 393 0 l 339 0 q 131 208 131 0 z "},"£":{"ha":803,"x_min":89,"x_max":728,"o":"m 89 0 l 89 106 l 214 106 l 214 433 l 89 433 l 89 525 l 214 525 l 214 746 q 426 958 214 958 l 638 958 l 700 910 l 700 853 l 425 853 q 331 758 331 853 l 331 525 l 581 525 l 581 433 l 331 433 l 331 106 l 728 106 l 728 0 l 89 0 z "},"¤":{"ha":803,"x_min":81,"x_max":722,"o":"m 81 218 l 186 324 l 186 649 l 81 754 l 140 814 l 246 708 l 557 708 l 663 814 l 722 754 l 617 649 l 617 324 l 722 218 l 663 158 l 557 264 l 246 264 l 140 158 l 81 218 m 275 389 q 319 344 275 344 l 483 344 q 528 389 528 344 l 528 583 q 483 628 528 628 l 319 628 q 275 583 275 628 l 275 389 z "},"¥":{"ha":803,"x_min":42,"x_max":761,"o":"m 42 933 l 57 958 l 156 958 l 401 501 l 647 958 l 746 958 l 761 933 l 493 444 l 668 444 l 668 358 l 460 358 l 460 253 l 668 253 l 668 167 l 460 167 l 460 0 l 343 0 l 343 167 l 135 167 l 135 253 l 343 253 l 343 358 l 135 358 l 135 444 l 310 444 l 42 933 z "},"¦":{"ha":381,"x_min":139,"x_max":242,"o":"m 139 236 l 242 236 l 242 -278 l 139 -278 l 139 236 m 139 514 l 139 1028 l 242 1028 l 242 514 l 139 514 z "},"§":{"ha":750,"x_min":111,"x_max":639,"o":"m 111 -42 l 431 -42 q 528 56 528 -42 q 444 167 528 153 l 278 194 q 111 378 111 222 l 111 528 l 178 594 q 111 753 111 644 q 319 958 111 958 l 550 958 l 606 917 l 606 861 l 319 861 q 222 764 222 861 q 306 653 222 667 l 472 625 q 639 442 639 597 l 639 292 l 572 225 q 639 67 639 175 q 431 -139 639 -139 l 167 -139 l 111 -97 l 111 -42 m 222 389 q 306 292 222 306 l 528 254 l 528 431 q 444 528 528 514 l 222 565 l 222 389 z "},"¨":{"ha":694,"x_min":167,"x_max":528,"o":"m 167 853 l 167 975 l 278 975 l 278 853 l 167 853 m 417 853 l 417 975 l 528 975 l 528 853 l 417 853 z "},"©":{"ha":1167,"x_min":111,"x_max":1056,"o":"m 111 136 l 111 822 q 247 958 111 958 l 919 958 q 1056 822 1056 958 l 1056 136 q 919 0 1056 0 l 247 0 q 111 136 111 0 m 194 122 q 242 75 194 75 l 925 75 q 972 122 972 75 l 972 836 q 925 883 972 883 l 242 883 q 194 836 194 883 l 194 122 m 361 347 l 361 611 q 500 750 361 750 l 719 750 l 764 715 l 764 669 l 494 669 q 450 625 450 669 l 450 333 q 494 289 450 289 l 764 289 l 764 243 l 719 208 l 500 208 q 361 347 361 208 z "},"ª":{"ha":556,"x_min":56,"x_max":486,"o":"m 56 556 l 56 597 q 194 736 56 736 l 397 736 l 397 833 q 353 878 397 878 l 97 878 l 97 924 l 142 958 l 347 958 q 486 819 486 958 l 486 417 l 194 417 q 56 556 56 417 m 144 542 q 189 497 144 497 l 397 497 l 397 656 l 189 656 q 144 611 144 656 l 144 542 z "},"«":{"ha":694,"x_min":42,"x_max":639,"o":"m 42 438 l 290 750 l 361 692 l 165 438 l 361 183 l 290 125 l 42 438 m 319 438 l 568 750 l 639 692 l 443 438 l 639 183 l 568 125 l 319 438 z "},"¬":{"ha":803,"x_min":89,"x_max":714,"o":"m 89 486 l 89 583 l 714 583 l 714 208 l 611 208 l 611 486 l 89 486 z "},"­":{"ha":500,"x_min":56,"x_max":444,"o":"m 56 375 l 56 472 l 444 472 l 444 375 l 56 375 z "},"®":{"ha":1167,"x_min":111,"x_max":1056,"o":"m 111 136 l 111 822 q 247 958 111 958 l 919 958 q 1056 822 1056 958 l 1056 136 q 919 0 1056 0 l 247 0 q 111 136 111 0 m 194 122 q 242 75 194 75 l 925 75 q 972 122 972 75 l 972 836 q 925 883 972 883 l 242 883 q 194 836 194 883 l 194 122 m 388 208 l 388 750 l 650 750 q 789 611 789 750 l 789 549 q 707 418 789 442 l 803 229 l 792 208 l 717 208 l 614 410 l 476 410 l 476 208 l 388 208 m 476 490 l 656 490 q 700 535 700 490 l 700 625 q 656 669 700 669 l 476 669 l 476 490 z "},"¯":{"ha":694,"x_min":167,"x_max":528,"o":"m 167 868 l 167 957 l 528 957 l 528 868 l 167 868 z "},"°":{"ha":569,"x_min":83,"x_max":486,"o":"m 83 650 l 83 822 q 219 958 83 958 l 350 958 q 486 822 486 958 l 486 650 q 350 514 486 514 l 219 514 q 83 650 83 514 m 167 636 q 214 589 167 589 l 356 589 q 403 636 403 589 l 403 836 q 356 883 403 883 l 214 883 q 167 836 167 883 l 167 636 z "},"±":{"ha":803,"x_min":89,"x_max":714,"o":"m 89 0 l 89 97 l 714 97 l 714 0 l 89 0 m 89 444 l 89 542 l 350 542 l 350 806 l 453 806 l 453 542 l 714 542 l 714 444 l 453 444 l 453 181 l 350 181 l 350 444 l 89 444 z "},"²":{"ha":500,"x_min":56,"x_max":444,"o":"m 56 389 l 56 560 q 160 693 56 672 l 313 724 q 356 774 356 732 l 356 833 q 311 878 356 878 l 72 878 l 72 924 l 117 958 l 306 958 q 444 819 444 958 l 444 778 q 340 644 444 665 l 188 614 q 144 564 144 606 l 144 469 l 444 469 l 444 389 l 56 389 z "},"³":{"ha":500,"x_min":64,"x_max":444,"o":"m 64 424 l 64 469 l 311 469 q 356 514 356 469 l 356 597 q 311 642 356 642 l 125 642 l 125 722 l 311 722 q 356 767 356 722 l 356 833 q 311 878 356 878 l 72 878 l 72 924 l 117 958 l 306 958 q 444 819 444 958 l 444 778 q 421 717 444 740 l 389 685 l 421 653 q 444 592 444 629 l 444 528 q 306 389 444 389 l 108 389 l 64 424 z "},"´":{"ha":694,"x_min":261,"x_max":511,"o":"m 261 851 l 439 1053 l 511 985 l 321 794 l 261 851 z "},"µ":{"ha":814,"x_min":111,"x_max":708,"o":"m 111 -278 l 111 722 l 222 722 l 222 97 l 500 97 q 597 194 597 97 l 597 722 l 708 722 l 708 208 q 500 0 708 0 l 222 0 l 222 -278 l 111 -278 z "},"¶":{"ha":806,"x_min":97,"x_max":667,"o":"m 97 542 l 97 750 q 306 958 97 958 l 458 958 l 458 333 l 306 333 q 97 542 97 333 m 556 -236 l 556 958 l 667 958 l 667 -236 l 556 -236 z "},"·":{"ha":361,"x_min":111,"x_max":250,"o":"m 111 361 l 111 514 l 250 514 l 250 361 l 111 361 z "},"¸":{"ha":694,"x_min":194,"x_max":467,"o":"m 194 -169 l 333 -169 q 378 -125 378 -169 l 378 49 l 467 49 l 467 -111 q 328 -250 467 -250 l 239 -250 l 194 -215 l 194 -169 z "},"¹":{"ha":500,"x_min":81,"x_max":436,"o":"m 81 389 l 81 469 l 221 469 l 221 878 l 110 878 l 110 924 l 154 958 l 310 958 l 310 469 l 436 469 l 436 389 l 81 389 z "},"º":{"ha":597,"x_min":69,"x_max":528,"o":"m 69 556 l 69 819 q 208 958 69 958 l 389 958 q 528 819 528 958 l 528 556 q 389 417 528 417 l 208 417 q 69 556 69 417 m 158 542 q 203 497 158 497 l 394 497 q 439 542 439 497 l 439 833 q 394 878 439 878 l 203 878 q 158 833 158 878 l 158 542 z "},"»":{"ha":694,"x_min":56,"x_max":653,"o":"m 56 183 l 251 438 l 56 692 l 126 750 l 375 438 l 126 125 l 56 183 m 333 183 l 529 438 l 333 692 l 404 750 l 653 438 l 404 125 l 333 183 z "},"¼":{"ha":1169,"x_min":81,"x_max":1114,"o":"m 81 389 l 81 469 l 221 469 l 221 878 l 110 878 l 110 924 l 154 958 l 310 958 l 310 469 l 436 469 l 436 389 l 81 389 m 357 42 l 815 958 l 899 917 l 440 0 l 357 42 z "},"½":{"ha":1239,"x_min":81,"x_max":1183,"o":"m 81 389 l 81 469 l 221 469 l 221 878 l 110 878 l 110 924 l 154 958 l 310 958 l 310 469 l 436 469 l 436 389 l 81 389 m 357 42 l 815 958 l 899 917 l 440 0 l 357 42 z "},"¾":{"ha":1139,"x_min":64,"x_max":1083,"o":"m 64 424 l 64 469 l 311 469 q 356 514 356 469 l 356 597 q 311 642 356 642 l 125 642 l 125 722 l 311 722 q 356 767 356 722 l 356 833 q 311 878 356 878 l 72 878 l 72 924 l 117 958 l 306 958 q 444 819 444 958 l 444 778 q 421 717 444 740 l 389 685 l 421 653 q 444 592 444 629 l 444 528 q 306 389 444 389 l 108 389 l 64 424 m 326 42 l 785 958 l 868 917 l 410 0 l 326 42 z "},"¿":{"ha":667,"x_min":69,"x_max":639,"o":"m 69 -24 l 69 101 q 282 314 69 314 l 340 314 l 340 431 l 458 431 l 458 208 l 281 208 q 186 114 186 208 l 186 -36 q 281 -131 186 -131 l 639 -131 l 639 -187 l 576 -236 l 282 -236 q 69 -24 69 -236 m 331 569 l 331 722 l 469 722 l 469 569 l 331 569 z "},"À":{"ha":875,"x_min":28,"x_max":847,"o":"m 28 25 l 342 958 l 533 958 l 847 25 l 831 0 l 735 0 l 656 242 l 219 242 l 140 0 l 44 0 l 28 25 m 254 347 l 621 347 l 454 853 l 421 853 l 254 347 m 274 1207 l 346 1275 l 524 1074 l 464 1017 l 274 1207 z "},"Á":{"ha":875,"x_min":28,"x_max":847,"o":"m 28 25 l 342 958 l 533 958 l 847 25 l 831 0 l 735 0 l 656 242 l 219 242 l 140 0 l 44 0 l 28 25 m 254 347 l 621 347 l 454 853 l 421 853 l 254 347 m 351 1074 l 529 1275 l 601 1207 l 411 1017 l 351 1074 z "},"Â":{"ha":875,"x_min":28,"x_max":847,"o":"m 28 25 l 342 958 l 533 958 l 847 25 l 831 0 l 735 0 l 656 242 l 219 242 l 140 0 l 44 0 l 28 25 m 254 347 l 621 347 l 454 853 l 421 853 l 254 347 m 246 1088 l 438 1275 l 629 1088 l 575 1031 l 438 1161 l 300 1031 l 246 1088 z "},"Ã":{"ha":875,"x_min":28,"x_max":847,"o":"m 28 25 l 342 958 l 533 958 l 847 25 l 831 0 l 735 0 l 656 242 l 219 242 l 140 0 l 44 0 l 28 25 m 254 347 l 621 347 l 454 853 l 421 853 l 254 347 m 222 1108 l 297 1183 q 368 1214 328 1214 q 439 1183 408 1214 l 483 1139 q 507 1128 494 1128 q 531 1139 519 1128 l 599 1207 l 653 1153 l 578 1078 q 507 1047 547 1047 q 436 1078 467 1047 l 392 1122 q 368 1133 381 1133 q 344 1122 356 1133 l 276 1054 l 222 1108 z "},"Ä":{"ha":875,"x_min":28,"x_max":847,"o":"m 28 25 l 342 958 l 533 958 l 847 25 l 831 0 l 735 0 l 656 242 l 219 242 l 140 0 l 44 0 l 28 25 m 254 347 l 621 347 l 454 853 l 421 853 l 254 347 m 257 1075 l 257 1197 l 368 1197 l 368 1075 l 257 1075 m 507 1075 l 507 1197 l 618 1197 l 618 1075 l 507 1075 z "},"Å":{"ha":875,"x_min":28,"x_max":847,"o":"m 28 25 l 342 958 l 533 958 l 847 25 l 831 0 l 735 0 l 656 242 l 219 242 l 140 0 l 44 0 l 28 25 m 254 347 l 621 347 l 454 853 l 421 853 l 254 347 m 296 1114 l 296 1192 q 393 1289 296 1289 l 482 1289 q 579 1192 579 1289 l 579 1114 q 482 1017 579 1017 l 393 1017 q 296 1114 296 1017 m 368 1108 q 396 1081 368 1081 l 479 1081 q 507 1108 507 1081 l 507 1197 q 479 1225 507 1225 l 396 1225 q 368 1197 368 1225 l 368 1108 z "},"Æ":{"ha":1236,"x_min":28,"x_max":1167,"o":"m 28 25 l 342 958 l 1167 958 l 1167 853 l 700 853 l 700 556 l 1125 556 l 1125 450 l 700 450 l 700 106 l 1167 106 l 1167 0 l 583 0 l 583 242 l 219 242 l 140 0 l 44 0 l 28 25 m 254 347 l 583 347 l 583 853 l 421 853 l 254 347 z "},"Ç":{"ha":847,"x_min":111,"x_max":778,"o":"m 111 213 l 111 746 q 324 958 111 958 l 715 958 l 778 910 l 778 853 l 322 853 q 228 758 228 853 l 228 200 q 322 106 228 106 l 778 106 l 778 49 l 715 0 l 324 0 q 111 213 111 0 m 319 -169 l 458 -169 q 503 -125 503 -169 l 503 49 l 592 49 l 592 -111 q 453 -250 592 -250 l 364 -250 l 319 -215 l 319 -169 z "},"È":{"ha":819,"x_min":125,"x_max":750,"o":"m 125 0 l 125 958 l 750 958 l 750 853 l 242 853 l 242 556 l 708 556 l 708 450 l 242 450 l 242 106 l 750 106 l 750 0 l 125 0 m 275 1207 l 347 1275 l 525 1074 l 465 1017 l 275 1207 z "},"É":{"ha":819,"x_min":125,"x_max":750,"o":"m 125 0 l 125 958 l 750 958 l 750 853 l 242 853 l 242 556 l 708 556 l 708 450 l 242 450 l 242 106 l 750 106 l 750 0 l 125 0 m 353 1074 l 531 1275 l 603 1207 l 413 1017 l 353 1074 z "},"Ê":{"ha":819,"x_min":125,"x_max":750,"o":"m 125 0 l 125 958 l 750 958 l 750 853 l 242 853 l 242 556 l 708 556 l 708 450 l 242 450 l 242 106 l 750 106 l 750 0 l 125 0 m 247 1088 l 439 1275 l 631 1088 l 576 1031 l 439 1161 l 301 1031 l 247 1088 z "},"Ë":{"ha":819,"x_min":125,"x_max":750,"o":"m 125 0 l 125 958 l 750 958 l 750 853 l 242 853 l 242 556 l 708 556 l 708 450 l 242 450 l 242 106 l 750 106 l 750 0 l 125 0 m 258 1075 l 258 1197 l 369 1197 l 369 1075 l 258 1075 m 508 1075 l 508 1197 l 619 1197 l 619 1075 l 508 1075 z "},"Ì":{"ha":367,"x_min":19,"x_max":269,"o":"m 125 0 l 125 958 l 242 958 l 242 0 l 125 0 m 19 1207 l 92 1275 l 269 1074 l 210 1017 l 19 1207 z "},"Í":{"ha":367,"x_min":97,"x_max":347,"o":"m 125 0 l 125 958 l 242 958 l 242 0 l 125 0 m 97 1074 l 275 1275 l 347 1207 l 157 1017 l 97 1074 z "},"Î":{"ha":367,"x_min":-8,"x_max":375,"o":"m 125 0 l 125 958 l 242 958 l 242 0 l 125 0 m -8 1088 l 183 1275 l 375 1088 l 321 1031 l 183 1161 l 46 1031 l -8 1088 z "},"Ï":{"ha":367,"x_min":3,"x_max":364,"o":"m 125 0 l 125 958 l 242 958 l 242 0 l 125 0 m 3 1075 l 3 1197 l 114 1197 l 114 1075 l 3 1075 m 253 1075 l 253 1197 l 364 1197 l 364 1075 l 253 1075 z "},"Ð":{"ha":958,"x_min":28,"x_max":861,"o":"m 28 433 l 28 525 l 139 525 l 139 958 l 550 958 q 861 647 861 958 l 861 311 q 550 0 861 0 l 139 0 l 139 433 l 28 433 m 256 106 l 550 106 q 744 300 744 106 l 744 658 q 550 853 744 853 l 256 853 l 256 525 l 500 525 l 500 433 l 256 433 l 256 106 z "},"Ñ":{"ha":1000,"x_min":125,"x_max":875,"o":"m 125 0 l 125 958 l 254 958 l 758 181 l 758 958 l 875 958 l 875 0 l 746 0 l 242 778 l 242 0 l 125 0 m 293 1108 l 368 1183 q 439 1214 399 1214 q 510 1183 479 1214 l 554 1139 q 578 1128 565 1128 q 601 1139 590 1128 l 669 1207 l 724 1153 l 649 1078 q 578 1047 618 1047 q 507 1078 538 1047 l 463 1122 q 439 1133 451 1133 q 415 1122 426 1133 l 347 1054 l 293 1108 z "},"Ò":{"ha":972,"x_min":111,"x_max":861,"o":"m 111 213 l 111 746 q 324 958 111 958 l 649 958 q 861 746 861 958 l 861 213 q 649 0 861 0 l 324 0 q 111 213 111 0 m 228 200 q 322 106 228 106 l 650 106 q 744 200 744 106 l 744 758 q 650 853 744 853 l 322 853 q 228 758 228 853 l 228 200 m 322 1207 l 394 1275 l 572 1074 l 513 1017 l 322 1207 z "},"Ó":{"ha":972,"x_min":111,"x_max":861,"o":"m 111 213 l 111 746 q 324 958 111 958 l 649 958 q 861 746 861 958 l 861 213 q 649 0 861 0 l 324 0 q 111 213 111 0 m 228 200 q 322 106 228 106 l 650 106 q 744 200 744 106 l 744 758 q 650 853 744 853 l 322 853 q 228 758 228 853 l 228 200 m 400 1074 l 578 1275 l 650 1207 l 460 1017 l 400 1074 z "},"Ô":{"ha":972,"x_min":111,"x_max":861,"o":"m 111 213 l 111 746 q 324 958 111 958 l 649 958 q 861 746 861 958 l 861 213 q 649 0 861 0 l 324 0 q 111 213 111 0 m 228 200 q 322 106 228 106 l 650 106 q 744 200 744 106 l 744 758 q 650 853 744 853 l 322 853 q 228 758 228 853 l 228 200 m 294 1088 l 486 1275 l 678 1088 l 624 1031 l 486 1161 l 349 1031 l 294 1088 z "},"Õ":{"ha":972,"x_min":111,"x_max":861,"o":"m 111 213 l 111 746 q 324 958 111 958 l 649 958 q 861 746 861 958 l 861 213 q 649 0 861 0 l 324 0 q 111 213 111 0 m 228 200 q 322 106 228 106 l 650 106 q 744 200 744 106 l 744 758 q 650 853 744 853 l 322 853 q 228 758 228 853 l 228 200 m 271 1108 l 346 1183 q 417 1214 376 1214 q 488 1183 457 1214 l 532 1139 q 556 1128 543 1128 q 579 1139 568 1128 l 647 1207 l 701 1153 l 626 1078 q 556 1047 596 1047 q 485 1078 515 1047 l 440 1122 q 417 1133 429 1133 q 393 1122 404 1133 l 325 1054 l 271 1108 z "},"Ö":{"ha":972,"x_min":111,"x_max":861,"o":"m 111 213 l 111 746 q 324 958 111 958 l 649 958 q 861 746 861 958 l 861 213 q 649 0 861 0 l 324 0 q 111 213 111 0 m 228 200 q 322 106 228 106 l 650 106 q 744 200 744 106 l 744 758 q 650 853 744 853 l 322 853 q 228 758 228 853 l 228 200 m 306 1075 l 306 1197 l 417 1197 l 417 1075 l 306 1075 m 556 1075 l 556 1197 l 667 1197 l 667 1075 l 556 1075 z "},"×":{"ha":803,"x_min":117,"x_max":686,"o":"m 117 250 l 332 465 l 117 681 l 186 750 l 401 535 l 617 750 l 686 681 l 471 465 l 686 250 l 617 181 l 401 396 l 186 181 l 117 250 z "},"Ø":{"ha":972,"x_min":111,"x_max":861,"o":"m 111 213 l 111 746 q 324 958 111 958 l 649 958 q 861 746 861 958 l 861 213 q 649 0 861 0 l 324 0 q 111 213 111 0 m 228 307 l 743 771 q 650 853 738 853 l 322 853 q 228 758 228 853 l 228 307 m 229 188 q 322 106 235 106 l 650 106 q 744 200 744 106 l 744 651 l 229 188 z "},"Ù":{"ha":956,"x_min":117,"x_max":839,"o":"m 117 213 l 117 958 l 233 958 l 233 200 q 328 106 233 106 l 628 106 q 722 200 722 106 l 722 958 l 839 958 l 839 213 q 626 0 839 0 l 329 0 q 117 213 117 0 m 314 1207 l 386 1275 l 564 1074 l 504 1017 l 314 1207 z "},"Ú":{"ha":956,"x_min":117,"x_max":839,"o":"m 117 213 l 117 958 l 233 958 l 233 200 q 328 106 233 106 l 628 106 q 722 200 722 106 l 722 958 l 839 958 l 839 213 q 626 0 839 0 l 329 0 q 117 213 117 0 m 392 1074 l 569 1275 l 642 1207 l 451 1017 l 392 1074 z "},"Û":{"ha":956,"x_min":117,"x_max":839,"o":"m 117 213 l 117 958 l 233 958 l 233 200 q 328 106 233 106 l 628 106 q 722 200 722 106 l 722 958 l 839 958 l 839 213 q 626 0 839 0 l 329 0 q 117 213 117 0 m 286 1088 l 478 1275 l 669 1088 l 615 1031 l 478 1161 l 340 1031 l 286 1088 z "},"Ü":{"ha":956,"x_min":117,"x_max":839,"o":"m 117 213 l 117 958 l 233 958 l 233 200 q 328 106 233 106 l 628 106 q 722 200 722 106 l 722 958 l 839 958 l 839 213 q 626 0 839 0 l 329 0 q 117 213 117 0 m 297 1075 l 297 1197 l 408 1197 l 408 1075 l 297 1075 m 547 1075 l 547 1197 l 658 1197 l 658 1075 l 547 1075 z "},"Ý":{"ha":806,"x_min":28,"x_max":778,"o":"m 28 933 l 43 958 l 142 958 l 403 474 l 664 958 l 763 958 l 778 933 l 461 356 l 461 0 l 344 0 l 344 356 l 28 933 m 317 1074 l 494 1275 l 567 1207 l 376 1017 l 317 1074 z "},"Þ":{"ha":875,"x_min":125,"x_max":792,"o":"m 125 0 l 125 958 l 242 958 l 242 792 l 579 792 q 792 579 792 792 l 792 399 q 579 186 792 186 l 242 186 l 242 0 l 125 0 m 242 292 l 581 292 q 675 386 675 292 l 675 592 q 581 686 675 686 l 242 686 l 242 292 z "},"ß":{"ha":836,"x_min":111,"x_max":736,"o":"m 111 0 l 111 819 q 319 1028 111 1028 l 500 1028 q 708 819 708 1028 l 708 682 q 681 601 708 635 l 632 543 l 690 494 q 736 383 736 456 l 736 208 q 528 0 736 0 l 403 0 l 347 42 l 347 97 l 528 97 q 625 194 625 97 l 625 389 q 528 486 625 486 l 361 486 l 361 583 l 500 583 q 597 681 597 583 l 597 833 q 500 931 597 931 l 319 931 q 222 833 222 931 l 222 0 l 111 0 z "},"à":{"ha":753,"x_min":72,"x_max":647,"o":"m 282 0 q 72 210 72 0 q 282 419 72 419 l 536 419 l 536 528 q 439 625 536 625 l 142 625 l 142 681 l 197 722 l 439 722 q 647 514 647 722 l 647 0 l 282 0 m 183 194 q 281 97 183 97 l 536 97 l 536 322 l 281 322 q 183 225 183 322 l 183 194 m 214 985 l 286 1053 l 464 851 l 404 794 l 214 985 z "},"á":{"ha":753,"x_min":72,"x_max":647,"o":"m 282 0 q 72 210 72 0 q 282 419 72 419 l 536 419 l 536 528 q 439 625 536 625 l 142 625 l 142 681 l 197 722 l 439 722 q 647 514 647 722 l 647 0 l 282 0 m 183 194 q 281 97 183 97 l 536 97 l 536 322 l 281 322 q 183 225 183 322 l 183 194 m 292 851 l 469 1053 l 542 985 l 351 794 l 292 851 z "},"â":{"ha":753,"x_min":72,"x_max":647,"o":"m 282 0 q 72 210 72 0 q 282 419 72 419 l 536 419 l 536 528 q 439 625 536 625 l 142 625 l 142 681 l 197 722 l 439 722 q 647 514 647 722 l 647 0 l 282 0 m 183 194 q 281 97 183 97 l 536 97 l 536 322 l 281 322 q 183 225 183 322 l 183 194 m 186 865 l 378 1053 l 569 865 l 515 808 l 378 939 l 240 808 l 186 865 z "},"ã":{"ha":753,"x_min":72,"x_max":647,"o":"m 282 0 q 72 210 72 0 q 282 419 72 419 l 536 419 l 536 528 q 439 625 536 625 l 142 625 l 142 681 l 197 722 l 439 722 q 647 514 647 722 l 647 0 l 282 0 m 183 194 q 281 97 183 97 l 536 97 l 536 322 l 281 322 q 183 225 183 322 l 183 194 m 163 886 l 238 961 q 308 992 268 992 q 379 961 349 992 l 424 917 q 447 906 435 906 q 471 917 460 906 l 539 985 l 593 931 l 518 856 q 447 825 488 825 q 376 856 407 825 l 332 900 q 308 911 321 911 q 285 900 296 911 l 217 832 l 163 886 z "},"ä":{"ha":753,"x_min":72,"x_max":647,"o":"m 282 0 q 72 210 72 0 q 282 419 72 419 l 536 419 l 536 528 q 439 625 536 625 l 142 625 l 142 681 l 197 722 l 439 722 q 647 514 647 722 l 647 0 l 282 0 m 183 194 q 281 97 183 97 l 536 97 l 536 322 l 281 322 q 183 225 183 322 l 183 194 m 197 853 l 197 975 l 308 975 l 308 853 l 197 853 m 447 853 l 447 975 l 558 975 l 558 853 l 447 853 z "},"å":{"ha":753,"x_min":72,"x_max":647,"o":"m 282 0 q 72 210 72 0 q 282 419 72 419 l 536 419 l 536 528 q 439 625 536 625 l 142 625 l 142 681 l 197 722 l 439 722 q 647 514 647 722 l 647 0 l 282 0 m 183 194 q 281 97 183 97 l 536 97 l 536 322 l 281 322 q 183 225 183 322 l 183 194 m 236 892 l 236 969 q 333 1067 236 1067 l 422 1067 q 519 969 519 1067 l 519 892 q 422 794 519 794 l 333 794 q 236 892 236 794 m 308 886 q 336 858 308 858 l 419 858 q 447 886 447 858 l 447 975 q 419 1003 447 1003 l 336 1003 q 308 975 308 1003 l 308 886 z "},"æ":{"ha":1214,"x_min":72,"x_max":1114,"o":"m 282 0 q 72 210 72 0 q 282 419 72 419 l 531 419 l 531 528 q 433 625 531 625 l 142 625 l 142 681 l 197 722 l 433 722 q 586 667 531 722 q 739 722 642 722 l 906 722 q 1114 514 1114 722 l 1114 314 l 642 314 l 642 194 q 739 97 642 97 l 1086 97 l 1086 42 l 1031 0 l 739 0 q 586 56 642 0 q 433 0 531 0 l 282 0 m 183 194 q 281 97 183 97 l 433 97 q 531 194 531 97 l 531 322 l 281 322 q 183 225 183 322 l 183 194 m 642 411 l 1003 411 l 1003 528 q 906 625 1003 625 l 739 625 q 642 528 642 625 l 642 411 z "},"ç":{"ha":700,"x_min":100,"x_max":636,"o":"m 100 208 l 100 514 q 308 722 100 722 l 581 722 l 636 681 l 636 625 l 308 625 q 211 528 211 625 l 211 194 q 308 97 211 97 l 636 97 l 636 42 l 581 0 l 308 0 q 100 208 100 0 m 242 -169 l 381 -169 q 425 -125 425 -169 l 425 49 l 514 49 l 514 -111 q 375 -250 514 -250 l 286 -250 l 242 -215 l 242 -169 z "},"è":{"ha":797,"x_min":100,"x_max":697,"o":"m 100 208 l 100 514 q 308 722 100 722 l 489 722 q 697 514 697 722 l 697 314 l 211 314 l 211 194 q 308 97 211 97 l 669 97 l 669 42 l 614 0 l 308 0 q 100 208 100 0 m 211 411 l 586 411 l 586 528 q 489 625 586 625 l 308 625 q 211 528 211 625 l 211 411 m 235 985 l 307 1053 l 485 851 l 425 794 l 235 985 z "},"é":{"ha":797,"x_min":100,"x_max":697,"o":"m 100 208 l 100 514 q 308 722 100 722 l 489 722 q 697 514 697 722 l 697 314 l 211 314 l 211 194 q 308 97 211 97 l 669 97 l 669 42 l 614 0 l 308 0 q 100 208 100 0 m 211 411 l 586 411 l 586 528 q 489 625 586 625 l 308 625 q 211 528 211 625 l 211 411 m 313 851 l 490 1053 l 563 985 l 372 794 l 313 851 z "},"ê":{"ha":797,"x_min":100,"x_max":697,"o":"m 100 208 l 100 514 q 308 722 100 722 l 489 722 q 697 514 697 722 l 697 314 l 211 314 l 211 194 q 308 97 211 97 l 669 97 l 669 42 l 614 0 l 308 0 q 100 208 100 0 m 211 411 l 586 411 l 586 528 q 489 625 586 625 l 308 625 q 211 528 211 625 l 211 411 m 207 865 l 399 1053 l 590 865 l 536 808 l 399 939 l 261 808 l 207 865 z "},"ë":{"ha":797,"x_min":100,"x_max":697,"o":"m 100 208 l 100 514 q 308 722 100 722 l 489 722 q 697 514 697 722 l 697 314 l 211 314 l 211 194 q 308 97 211 97 l 669 97 l 669 42 l 614 0 l 308 0 q 100 208 100 0 m 211 411 l 586 411 l 586 528 q 489 625 586 625 l 308 625 q 211 528 211 625 l 211 411 m 218 853 l 218 975 l 329 975 l 329 853 l 218 853 m 468 853 l 468 975 l 579 975 l 579 853 l 468 853 z "},"ì":{"ha":333,"x_min":3,"x_max":253,"o":"m 111 0 l 111 722 l 222 722 l 222 0 l 111 0 m 3 985 l 75 1053 l 253 851 l 193 794 l 3 985 z "},"í":{"ha":333,"x_min":81,"x_max":331,"o":"m 111 0 l 111 722 l 222 722 l 222 0 l 111 0 m 81 851 l 258 1053 l 331 985 l 140 794 l 81 851 z "},"î":{"ha":333,"x_min":-25,"x_max":358,"o":"m 111 0 l 111 722 l 222 722 l 222 0 l 111 0 m -25 865 l 167 1053 l 358 865 l 304 808 l 167 939 l 29 808 l -25 865 z "},"ï":{"ha":333,"x_min":-14,"x_max":347,"o":"m 111 0 l 111 722 l 222 722 l 222 0 l 111 0 m -14 853 l -14 975 l 97 975 l 97 853 l -14 853 m 236 853 l 236 975 l 347 975 l 347 853 l 236 853 z "},"ð":{"ha":811,"x_min":100,"x_max":711,"o":"m 100 208 l 100 417 q 308 625 100 625 l 558 625 l 450 796 l 299 724 l 263 801 l 404 869 l 331 985 l 419 1042 l 500 915 l 647 985 l 683 907 l 546 842 l 664 654 q 711 506 711 579 l 711 208 q 503 0 711 0 l 308 0 q 100 208 100 0 m 211 194 q 308 97 211 97 l 503 97 q 600 194 600 97 l 600 528 l 308 528 q 211 431 211 528 l 211 194 z "},"ñ":{"ha":814,"x_min":111,"x_max":708,"o":"m 111 0 l 111 722 l 500 722 q 708 514 708 722 l 708 0 l 597 0 l 597 528 q 500 625 597 625 l 222 625 l 222 0 l 111 0 m 194 886 l 269 961 q 340 992 300 992 q 411 961 381 992 l 456 917 q 479 906 467 906 q 503 917 492 906 l 571 985 l 625 931 l 550 856 q 479 825 519 825 q 408 856 439 825 l 364 900 q 340 911 353 911 q 317 900 328 911 l 249 832 l 194 886 z "},"ò":{"ha":811,"x_min":100,"x_max":711,"o":"m 100 208 l 100 514 q 308 722 100 722 l 503 722 q 711 514 711 722 l 711 208 q 503 0 711 0 l 308 0 q 100 208 100 0 m 211 194 q 308 97 211 97 l 503 97 q 600 194 600 97 l 600 528 q 503 625 600 625 l 308 625 q 211 528 211 625 l 211 194 m 242 985 l 314 1053 l 492 851 l 432 794 l 242 985 z "},"ó":{"ha":811,"x_min":100,"x_max":711,"o":"m 100 208 l 100 514 q 308 722 100 722 l 503 722 q 711 514 711 722 l 711 208 q 503 0 711 0 l 308 0 q 100 208 100 0 m 211 194 q 308 97 211 97 l 503 97 q 600 194 600 97 l 600 528 q 503 625 600 625 l 308 625 q 211 528 211 625 l 211 194 m 319 851 l 497 1053 l 569 985 l 379 794 l 319 851 z "},"ô":{"ha":811,"x_min":100,"x_max":711,"o":"m 100 208 l 100 514 q 308 722 100 722 l 503 722 q 711 514 711 722 l 711 208 q 503 0 711 0 l 308 0 q 100 208 100 0 m 211 194 q 308 97 211 97 l 503 97 q 600 194 600 97 l 600 528 q 503 625 600 625 l 308 625 q 211 528 211 625 l 211 194 m 214 865 l 406 1053 l 597 865 l 543 808 l 406 939 l 268 808 l 214 865 z "},"õ":{"ha":811,"x_min":100,"x_max":711,"o":"m 100 208 l 100 514 q 308 722 100 722 l 503 722 q 711 514 711 722 l 711 208 q 503 0 711 0 l 308 0 q 100 208 100 0 m 211 194 q 308 97 211 97 l 503 97 q 600 194 600 97 l 600 528 q 503 625 600 625 l 308 625 q 211 528 211 625 l 211 194 m 190 886 l 265 961 q 336 992 296 992 q 407 961 376 992 l 451 917 q 475 906 463 906 q 499 917 488 906 l 567 985 l 621 931 l 546 856 q 475 825 515 825 q 404 856 435 825 l 360 900 q 336 911 349 911 q 313 900 324 911 l 244 832 l 190 886 z "},"ö":{"ha":811,"x_min":100,"x_max":711,"o":"m 100 208 l 100 514 q 308 722 100 722 l 503 722 q 711 514 711 722 l 711 208 q 503 0 711 0 l 308 0 q 100 208 100 0 m 211 194 q 308 97 211 97 l 503 97 q 600 194 600 97 l 600 528 q 503 625 600 625 l 308 625 q 211 528 211 625 l 211 194 m 225 853 l 225 975 l 336 975 l 336 853 l 225 853 m 475 853 l 475 975 l 586 975 l 586 853 l 475 853 z "},"÷":{"ha":803,"x_min":89,"x_max":714,"o":"m 89 417 l 89 514 l 714 514 l 714 417 l 89 417 m 339 139 l 339 264 l 464 264 l 464 139 l 339 139 m 339 667 l 339 792 l 464 792 l 464 667 l 339 667 z "},"ø":{"ha":811,"x_min":100,"x_max":711,"o":"m 100 208 l 100 514 q 308 722 100 722 l 503 722 q 711 514 711 722 l 711 208 q 503 0 711 0 l 308 0 q 100 208 100 0 m 211 242 l 589 582 q 503 625 567 625 l 308 625 q 211 528 211 625 l 211 242 m 222 140 q 308 97 244 97 l 503 97 q 600 194 600 97 l 600 481 l 222 140 z "},"ù":{"ha":814,"x_min":106,"x_max":703,"o":"m 106 208 l 106 722 l 217 722 l 217 194 q 314 97 217 97 l 592 97 l 592 722 l 703 722 l 703 0 l 314 0 q 106 208 106 0 m 240 985 l 313 1053 l 490 851 l 431 794 l 240 985 z "},"ú":{"ha":814,"x_min":106,"x_max":703,"o":"m 106 208 l 106 722 l 217 722 l 217 194 q 314 97 217 97 l 592 97 l 592 722 l 703 722 l 703 0 l 314 0 q 106 208 106 0 m 318 851 l 496 1053 l 568 985 l 378 794 l 318 851 z "},"û":{"ha":814,"x_min":106,"x_max":703,"o":"m 106 208 l 106 722 l 217 722 l 217 194 q 314 97 217 97 l 592 97 l 592 722 l 703 722 l 703 0 l 314 0 q 106 208 106 0 m 213 865 l 404 1053 l 596 865 l 542 808 l 404 939 l 267 808 l 213 865 z "},"ü":{"ha":814,"x_min":106,"x_max":703,"o":"m 106 208 l 106 722 l 217 722 l 217 194 q 314 97 217 97 l 592 97 l 592 722 l 703 722 l 703 0 l 314 0 q 106 208 106 0 m 224 853 l 224 975 l 335 975 l 335 853 l 224 853 m 474 853 l 474 975 l 585 975 l 585 853 l 474 853 z "},"ý":{"ha":722,"x_min":28,"x_max":694,"o":"m 28 703 l 40 722 l 136 722 l 347 97 l 375 97 l 586 722 l 682 722 l 694 703 l 356 -278 l 260 -278 l 247 -258 l 340 0 l 271 0 l 28 703 m 275 851 l 453 1053 l 525 985 l 335 794 l 275 851 z "},"þ":{"ha":808,"x_min":111,"x_max":708,"o":"m 111 -278 l 111 1028 l 222 1028 l 222 722 l 500 722 q 708 514 708 722 l 708 208 q 500 0 708 0 l 222 0 l 222 -278 l 111 -278 m 222 97 l 500 97 q 597 194 597 97 l 597 528 q 500 625 597 625 l 222 625 l 222 97 z "},"ÿ":{"ha":722,"x_min":28,"x_max":694,"o":"m 28 703 l 40 722 l 136 722 l 347 97 l 375 97 l 586 722 l 682 722 l 694 703 l 356 -278 l 260 -278 l 247 -258 l 340 0 l 271 0 l 28 703 m 181 853 l 181 975 l 292 975 l 292 853 l 181 853 m 431 853 l 431 975 l 542 975 l 542 853 l 431 853 z "},"Ā":{"ha":875,"x_min":28,"x_max":847,"o":"m 28 25 l 342 958 l 533 958 l 847 25 l 831 0 l 735 0 l 656 242 l 219 242 l 140 0 l 44 0 l 28 25 m 254 347 l 621 347 l 454 853 l 421 853 l 254 347 m 257 1090 l 257 1179 l 618 1179 l 618 1090 l 257 1090 z "},"ā":{"ha":753,"x_min":72,"x_max":647,"o":"m 282 0 q 72 210 72 0 q 282 419 72 419 l 536 419 l 536 528 q 439 625 536 625 l 142 625 l 142 681 l 197 722 l 439 722 q 647 514 647 722 l 647 0 l 282 0 m 183 194 q 281 97 183 97 l 536 97 l 536 322 l 281 322 q 183 225 183 322 l 183 194 m 197 868 l 197 957 l 558 957 l 558 868 l 197 868 z "},"Ă":{"ha":875,"x_min":28,"x_max":847,"o":"m 28 25 l 342 958 l 533 958 l 847 25 l 831 0 l 735 0 l 656 242 l 219 242 l 140 0 l 44 0 l 28 25 m 254 347 l 621 347 l 454 853 l 421 853 l 254 347 m 264 1153 l 264 1233 l 339 1233 l 339 1153 q 364 1128 339 1128 l 511 1128 q 536 1153 536 1128 l 536 1233 l 611 1233 l 611 1153 q 511 1053 611 1053 l 364 1053 q 264 1153 264 1053 z "},"ă":{"ha":753,"x_min":72,"x_max":647,"o":"m 282 0 q 72 210 72 0 q 282 419 72 419 l 536 419 l 536 528 q 439 625 536 625 l 142 625 l 142 681 l 197 722 l 439 722 q 647 514 647 722 l 647 0 l 282 0 m 183 194 q 281 97 183 97 l 536 97 l 536 322 l 281 322 q 183 225 183 322 l 183 194 m 204 931 l 204 1011 l 279 1011 l 279 931 q 304 906 279 906 l 451 906 q 476 931 476 906 l 476 1011 l 551 1011 l 551 931 q 451 831 551 831 l 304 831 q 204 931 204 831 z "},"Ą":{"ha":875,"x_min":28,"x_max":847,"o":"m 28 25 l 342 958 l 533 958 l 847 25 l 831 0 l 735 0 l 656 242 l 219 242 l 140 0 l 44 0 l 28 25 m 254 347 l 621 347 l 454 853 l 421 853 l 254 347 m 581 -58 q 719 81 581 81 l 753 81 l 753 0 l 714 0 q 669 -44 669 0 l 669 -125 q 714 -169 669 -169 l 847 -169 l 847 -215 l 803 -250 l 719 -250 q 581 -111 581 -250 l 581 -58 z "},"ą":{"ha":753,"x_min":72,"x_max":647,"o":"m 282 0 q 72 210 72 0 q 282 419 72 419 l 536 419 l 536 528 q 439 625 536 625 l 142 625 l 142 681 l 197 722 l 439 722 q 647 514 647 722 l 647 0 l 282 0 m 183 194 q 281 97 183 97 l 536 97 l 536 322 l 281 322 q 183 225 183 322 l 183 194 m 381 -58 q 519 81 381 81 l 553 81 l 553 0 l 514 0 q 469 -44 469 0 l 469 -125 q 514 -169 469 -169 l 647 -169 l 647 -215 l 603 -250 l 519 -250 q 381 -111 381 -250 l 381 -58 z "},"Ć":{"ha":847,"x_min":111,"x_max":778,"o":"m 111 213 l 111 746 q 324 958 111 958 l 715 958 l 778 910 l 778 853 l 322 853 q 228 758 228 853 l 228 200 q 322 106 228 106 l 778 106 l 778 49 l 715 0 l 324 0 q 111 213 111 0 m 386 1074 l 564 1275 l 636 1207 l 446 1017 l 386 1074 z "},"ć":{"ha":700,"x_min":100,"x_max":636,"o":"m 100 208 l 100 514 q 308 722 100 722 l 581 722 l 636 681 l 636 625 l 308 625 q 211 528 211 625 l 211 194 q 308 97 211 97 l 636 97 l 636 42 l 581 0 l 308 0 q 100 208 100 0 m 308 851 l 486 1053 l 558 985 l 368 794 l 308 851 z "},"Č":{"ha":847,"x_min":111,"x_max":778,"o":"m 111 213 l 111 746 q 324 958 111 958 l 715 958 l 778 910 l 778 853 l 322 853 q 228 758 228 853 l 228 200 q 322 106 228 106 l 778 106 l 778 49 l 715 0 l 324 0 q 111 213 111 0 m 281 1204 l 335 1261 l 472 1131 l 610 1261 l 664 1204 l 472 1017 l 281 1204 z "},"č":{"ha":700,"x_min":100,"x_max":636,"o":"m 100 208 l 100 514 q 308 722 100 722 l 581 722 l 636 681 l 636 625 l 308 625 q 211 528 211 625 l 211 194 q 308 97 211 97 l 636 97 l 636 42 l 581 0 l 308 0 q 100 208 100 0 m 203 982 l 257 1039 l 394 908 l 532 1039 l 586 982 l 394 794 l 203 982 z "},"Ď":{"ha":944,"x_min":125,"x_max":847,"o":"m 125 0 l 125 958 l 500 958 q 847 611 847 958 l 847 347 q 500 0 847 0 l 125 0 m 242 106 l 507 106 q 731 329 731 106 l 731 629 q 507 853 731 853 l 242 853 l 242 106 m 267 1204 l 321 1261 l 458 1131 l 596 1261 l 650 1204 l 458 1017 l 267 1204 z "},"ď":{"ha":875,"x_min":100,"x_max":911,"o":"m 100 208 l 100 514 q 308 722 100 722 l 586 722 l 586 1028 l 697 1028 l 697 0 l 308 0 q 100 208 100 0 m 211 194 q 308 97 211 97 l 586 97 l 586 625 l 308 625 q 211 528 211 625 l 211 194 m 767 822 l 814 1056 l 899 1056 l 911 1036 l 835 806 l 767 822 z "},"Đ":{"ha":958,"x_min":28,"x_max":861,"o":"m 28 433 l 28 525 l 139 525 l 139 958 l 550 958 q 861 647 861 958 l 861 311 q 550 0 861 0 l 139 0 l 139 433 l 28 433 m 256 106 l 550 106 q 744 300 744 106 l 744 658 q 550 853 744 853 l 256 853 l 256 525 l 500 525 l 500 433 l 256 433 l 256 106 z "},"đ":{"ha":808,"x_min":100,"x_max":794,"o":"m 100 208 l 100 514 q 308 722 100 722 l 586 722 l 586 833 l 336 833 l 336 917 l 586 917 l 586 1028 l 697 1028 l 697 917 l 794 917 l 794 833 l 697 833 l 697 0 l 308 0 q 100 208 100 0 m 211 194 q 308 97 211 97 l 586 97 l 586 625 l 308 625 q 211 528 211 625 l 211 194 z "},"Ē":{"ha":819,"x_min":125,"x_max":750,"o":"m 125 0 l 125 958 l 750 958 l 750 853 l 242 853 l 242 556 l 708 556 l 708 450 l 242 450 l 242 106 l 750 106 l 750 0 l 125 0 m 258 1090 l 258 1179 l 619 1179 l 619 1090 l 258 1090 z "},"ē":{"ha":797,"x_min":100,"x_max":697,"o":"m 100 208 l 100 514 q 308 722 100 722 l 489 722 q 697 514 697 722 l 697 314 l 211 314 l 211 194 q 308 97 211 97 l 669 97 l 669 42 l 614 0 l 308 0 q 100 208 100 0 m 211 411 l 586 411 l 586 528 q 489 625 586 625 l 308 625 q 211 528 211 625 l 211 411 m 218 868 l 218 957 l 579 957 l 579 868 l 218 868 z "},"Ė":{"ha":819,"x_min":125,"x_max":750,"o":"m 125 0 l 125 958 l 750 958 l 750 853 l 242 853 l 242 556 l 708 556 l 708 450 l 242 450 l 242 106 l 750 106 l 750 0 l 125 0 m 381 1075 l 381 1203 l 497 1203 l 497 1075 l 381 1075 z "},"ė":{"ha":797,"x_min":100,"x_max":697,"o":"m 100 208 l 100 514 q 308 722 100 722 l 489 722 q 697 514 697 722 l 697 314 l 211 314 l 211 194 q 308 97 211 97 l 669 97 l 669 42 l 614 0 l 308 0 q 100 208 100 0 m 211 411 l 586 411 l 586 528 q 489 625 586 625 l 308 625 q 211 528 211 625 l 211 411 m 340 853 l 340 981 l 457 981 l 457 853 l 340 853 z "},"Ę":{"ha":819,"x_min":125,"x_max":750,"o":"m 125 0 l 125 958 l 750 958 l 750 853 l 242 853 l 242 556 l 708 556 l 708 450 l 242 450 l 242 106 l 750 106 l 750 0 l 125 0 m 483 -58 q 622 81 483 81 l 656 81 l 656 0 l 617 0 q 572 -44 572 0 l 572 -125 q 617 -169 572 -169 l 750 -169 l 750 -215 l 706 -250 l 622 -250 q 483 -111 483 -250 l 483 -58 z "},"ę":{"ha":797,"x_min":100,"x_max":697,"o":"m 100 208 l 100 514 q 308 722 100 722 l 489 722 q 697 514 697 722 l 697 314 l 211 314 l 211 194 q 308 97 211 97 l 669 97 l 669 42 l 614 0 l 308 0 q 100 208 100 0 m 211 411 l 586 411 l 586 528 q 489 625 586 625 l 308 625 q 211 528 211 625 l 211 411 m 389 -58 q 528 81 389 81 l 561 81 l 561 0 l 522 0 q 478 -44 478 0 l 478 -125 q 522 -169 478 -169 l 656 -169 l 656 -215 l 611 -250 l 528 -250 q 389 -111 389 -250 l 389 -58 z "},"Ě":{"ha":819,"x_min":125,"x_max":750,"o":"m 125 0 l 125 958 l 750 958 l 750 853 l 242 853 l 242 556 l 708 556 l 708 450 l 242 450 l 242 106 l 750 106 l 750 0 l 125 0 m 247 1204 l 301 1261 l 439 1131 l 576 1261 l 631 1204 l 439 1017 l 247 1204 z "},"ě":{"ha":797,"x_min":100,"x_max":697,"o":"m 100 208 l 100 514 q 308 722 100 722 l 489 722 q 697 514 697 722 l 697 314 l 211 314 l 211 194 q 308 97 211 97 l 669 97 l 669 42 l 614 0 l 308 0 q 100 208 100 0 m 211 411 l 586 411 l 586 528 q 489 625 586 625 l 308 625 q 211 528 211 625 l 211 411 m 207 982 l 261 1039 l 399 908 l 536 1039 l 590 982 l 399 794 l 207 982 z "},"Ğ":{"ha":931,"x_min":111,"x_max":833,"o":"m 111 213 l 111 746 q 324 958 111 958 l 743 958 l 806 910 l 806 853 l 322 853 q 228 758 228 853 l 228 200 q 322 106 228 106 l 717 106 l 717 450 l 481 450 l 481 556 l 833 556 l 833 0 l 324 0 q 111 213 111 0 m 299 1153 l 299 1233 l 374 1233 l 374 1153 q 399 1128 374 1128 l 546 1128 q 571 1153 571 1128 l 571 1233 l 646 1233 l 646 1153 q 546 1053 646 1053 l 399 1053 q 299 1153 299 1053 z "},"ğ":{"ha":808,"x_min":100,"x_max":697,"o":"m 100 208 l 100 514 q 308 722 100 722 l 697 722 l 697 -69 q 489 -278 697 -278 l 211 -278 l 156 -236 l 156 -181 l 489 -181 q 586 -83 586 -181 l 586 0 l 308 0 q 100 208 100 0 m 211 194 q 308 97 211 97 l 586 97 l 586 625 l 308 625 q 211 528 211 625 l 211 194 m 225 931 l 225 1011 l 300 1011 l 300 931 q 325 906 300 906 l 472 906 q 497 931 497 906 l 497 1011 l 572 1011 l 572 931 q 472 831 572 831 l 325 831 q 225 931 225 831 z "},"Ģ":{"ha":931,"x_min":111,"x_max":833,"o":"m 111 213 l 111 746 q 324 958 111 958 l 743 958 l 806 910 l 806 853 l 322 853 q 228 758 228 853 l 228 200 q 322 106 228 106 l 717 106 l 717 450 l 481 450 l 481 556 l 833 556 l 833 0 l 324 0 q 111 213 111 0 m 375 -256 l 419 -69 l 518 -69 l 531 -89 l 453 -278 l 375 -256 z "},"ģ":{"ha":808,"x_min":100,"x_max":697,"o":"m 100 208 l 100 514 q 308 722 100 722 l 697 722 l 697 -69 q 489 -278 697 -278 l 211 -278 l 156 -236 l 156 -181 l 489 -181 q 586 -83 586 -181 l 586 0 l 308 0 q 100 208 100 0 m 211 194 q 308 97 211 97 l 586 97 l 586 625 l 308 625 q 211 528 211 625 l 211 194 m 354 844 l 432 1033 l 510 1011 l 465 825 l 367 825 l 354 844 z "},"Ī":{"ha":367,"x_min":3,"x_max":364,"o":"m 125 0 l 125 958 l 242 958 l 242 0 l 125 0 m 3 1090 l 3 1179 l 364 1179 l 364 1090 l 3 1090 z "},"ī":{"ha":333,"x_min":-14,"x_max":347,"o":"m 111 0 l 111 722 l 222 722 l 222 0 l 111 0 m -14 868 l -14 957 l 347 957 l 347 868 l -14 868 z "},"Į":{"ha":367,"x_min":14,"x_max":281,"o":"m 125 0 l 125 958 l 242 958 l 242 0 l 125 0 m 14 -58 q 153 81 14 81 l 186 81 l 186 0 l 147 0 q 103 -44 103 0 l 103 -125 q 147 -169 103 -169 l 281 -169 l 281 -215 l 236 -250 l 153 -250 q 14 -111 14 -250 l 14 -58 z "},"į":{"ha":333,"x_min":0,"x_max":267,"o":"m 108 853 l 108 981 l 225 981 l 225 853 l 108 853 m 111 0 l 111 722 l 222 722 l 222 0 l 111 0 m 0 -58 q 139 81 0 81 l 172 81 l 172 0 l 133 0 q 89 -44 89 0 l 89 -125 q 133 -169 89 -169 l 267 -169 l 267 -215 l 222 -250 l 139 -250 q 0 -111 0 -250 l 0 -58 z "},"İ":{"ha":367,"x_min":125,"x_max":242,"o":"m 125 0 l 125 958 l 242 958 l 242 0 l 125 0 m 125 1075 l 125 1203 l 242 1203 l 242 1075 l 125 1075 z "},"ı":{"ha":333,"x_min":111,"x_max":222,"o":"m 111 0 l 111 722 l 222 722 l 222 0 l 111 0 z "},"Ķ":{"ha":875,"x_min":125,"x_max":833,"o":"m 125 0 l 125 958 l 242 958 l 242 467 l 682 958 l 789 958 l 801 932 l 471 564 l 833 26 l 821 0 l 714 0 l 394 479 l 242 311 l 242 0 l 125 0 m 347 -256 l 392 -69 l 490 -69 l 503 -89 l 425 -278 l 347 -256 z "},"ķ":{"ha":733,"x_min":111,"x_max":694,"o":"m 111 0 l 111 1028 l 222 1028 l 222 354 l 557 722 l 665 722 l 675 701 l 417 419 l 694 21 l 685 0 l 576 0 l 343 339 l 222 208 l 222 0 l 111 0 m 278 -256 l 322 -69 l 421 -69 l 433 -89 l 356 -278 l 278 -256 z "},"Ĺ":{"ha":742,"x_min":111,"x_max":708,"o":"m 125 0 l 125 958 l 242 958 l 242 106 l 708 106 l 708 0 l 125 0 m 111 1074 l 289 1275 l 361 1207 l 171 1017 l 111 1074 z "},"ĺ":{"ha":361,"x_min":75,"x_max":325,"o":"m 106 197 l 106 1028 l 217 1028 l 217 186 q 314 86 217 92 l 314 -11 q 106 197 106 -11 m 75 1146 l 253 1347 l 325 1279 l 135 1089 l 75 1146 z "},"Ļ":{"ha":742,"x_min":125,"x_max":708,"o":"m 125 0 l 125 958 l 242 958 l 242 106 l 708 106 l 708 0 l 125 0 m 319 -256 l 364 -69 l 463 -69 l 475 -89 l 397 -278 l 319 -256 z "},"ļ":{"ha":361,"x_min":106,"x_max":314,"o":"m 106 197 l 106 1028 l 217 1028 l 217 186 q 314 86 217 92 l 314 -11 q 106 197 106 -11 m 118 -256 l 163 -69 l 261 -69 l 274 -89 l 196 -278 l 118 -256 z "},"Ľ":{"ha":742,"x_min":125,"x_max":708,"o":"m 125 0 l 125 958 l 242 958 l 242 106 l 708 106 l 708 0 l 125 0 m 411 753 l 458 986 l 543 986 l 556 967 l 479 736 l 411 753 z "},"ľ":{"ha":417,"x_min":106,"x_max":431,"o":"m 106 197 l 106 1028 l 217 1028 l 217 186 q 314 86 217 92 l 314 -11 q 106 197 106 -11 m 286 822 l 333 1056 l 418 1056 l 431 1036 l 354 806 l 286 822 z "},"Ł":{"ha":756,"x_min":14,"x_max":722,"o":"m 14 393 l 139 465 l 139 958 l 256 958 l 256 532 l 444 642 l 490 563 l 256 428 l 256 106 l 722 106 l 722 0 l 139 0 l 139 360 l 60 314 l 14 393 z "},"ł":{"ha":383,"x_min":4,"x_max":376,"o":"m 4 465 l 119 532 l 119 1028 l 231 1028 l 231 596 l 333 656 l 376 581 l 231 497 l 231 186 q 328 86 231 92 l 328 -11 q 119 197 119 -11 l 119 433 l 47 390 l 4 465 z "},"Ń":{"ha":1000,"x_min":125,"x_max":875,"o":"m 125 0 l 125 958 l 254 958 l 758 181 l 758 958 l 875 958 l 875 0 l 746 0 l 242 778 l 242 0 l 125 0 m 422 1074 l 600 1275 l 672 1207 l 482 1017 l 422 1074 z "},"ń":{"ha":814,"x_min":111,"x_max":708,"o":"m 111 0 l 111 722 l 500 722 q 708 514 708 722 l 708 0 l 597 0 l 597 528 q 500 625 597 625 l 222 625 l 222 0 l 111 0 m 324 851 l 501 1053 l 574 985 l 383 794 l 324 851 z "},"Ņ":{"ha":1000,"x_min":125,"x_max":875,"o":"m 125 0 l 125 958 l 254 958 l 758 181 l 758 958 l 875 958 l 875 0 l 746 0 l 242 778 l 242 0 l 125 0 m 394 -256 l 439 -69 l 538 -69 l 550 -89 l 472 -278 l 394 -256 z "},"ņ":{"ha":814,"x_min":111,"x_max":708,"o":"m 111 0 l 111 722 l 500 722 q 708 514 708 722 l 708 0 l 597 0 l 597 528 q 500 625 597 625 l 222 625 l 222 0 l 111 0 m 313 -256 l 357 -69 l 456 -69 l 468 -89 l 390 -278 l 313 -256 z "},"Ň":{"ha":1000,"x_min":125,"x_max":875,"o":"m 125 0 l 125 958 l 254 958 l 758 181 l 758 958 l 875 958 l 875 0 l 746 0 l 242 778 l 242 0 l 125 0 m 317 1204 l 371 1261 l 508 1131 l 646 1261 l 700 1204 l 508 1017 l 317 1204 z "},"ň":{"ha":814,"x_min":111,"x_max":708,"o":"m 111 0 l 111 722 l 500 722 q 708 514 708 722 l 708 0 l 597 0 l 597 528 q 500 625 597 625 l 222 625 l 222 0 l 111 0 m 218 982 l 272 1039 l 410 908 l 547 1039 l 601 982 l 410 794 l 218 982 z "},"Ō":{"ha":972,"x_min":111,"x_max":861,"o":"m 111 213 l 111 746 q 324 958 111 958 l 649 958 q 861 746 861 958 l 861 213 q 649 0 861 0 l 324 0 q 111 213 111 0 m 228 200 q 322 106 228 106 l 650 106 q 744 200 744 106 l 744 758 q 650 853 744 853 l 322 853 q 228 758 228 853 l 228 200 m 306 1090 l 306 1179 l 667 1179 l 667 1090 l 306 1090 z "},"ō":{"ha":811,"x_min":100,"x_max":711,"o":"m 100 208 l 100 514 q 308 722 100 722 l 503 722 q 711 514 711 722 l 711 208 q 503 0 711 0 l 308 0 q 100 208 100 0 m 211 194 q 308 97 211 97 l 503 97 q 600 194 600 97 l 600 528 q 503 625 600 625 l 308 625 q 211 528 211 625 l 211 194 m 225 868 l 225 957 l 586 957 l 586 868 l 225 868 z "},"Ő":{"ha":972,"x_min":111,"x_max":861,"o":"m 111 213 l 111 746 q 324 958 111 958 l 649 958 q 861 746 861 958 l 861 213 q 649 0 861 0 l 324 0 q 111 213 111 0 m 228 200 q 322 106 228 106 l 650 106 q 744 200 744 106 l 744 758 q 650 853 744 853 l 322 853 q 228 758 228 853 l 228 200 m 308 1068 l 464 1275 l 539 1214 l 369 1017 l 308 1068 m 538 1068 l 693 1275 l 768 1214 l 599 1017 l 538 1068 z "},"ő":{"ha":811,"x_min":100,"x_max":711,"o":"m 100 208 l 100 514 q 308 722 100 722 l 503 722 q 711 514 711 722 l 711 208 q 503 0 711 0 l 308 0 q 100 208 100 0 m 211 194 q 308 97 211 97 l 503 97 q 600 194 600 97 l 600 528 q 503 625 600 625 l 308 625 q 211 528 211 625 l 211 194 m 228 846 l 383 1053 l 458 992 l 289 794 l 228 846 m 457 846 l 613 1053 l 688 992 l 518 794 l 457 846 z "},"Œ":{"ha":1336,"x_min":111,"x_max":1267,"o":"m 111 213 l 111 746 q 324 958 111 958 l 1267 958 l 1267 853 l 800 853 l 800 556 l 1225 556 l 1225 450 l 800 450 l 800 106 l 1267 106 l 1267 0 l 324 0 q 111 213 111 0 m 228 200 q 322 106 228 106 l 683 106 l 683 853 l 322 853 q 228 758 228 853 l 228 200 z "},"œ":{"ha":1269,"x_min":100,"x_max":1169,"o":"m 100 208 l 100 514 q 308 722 100 722 l 489 722 q 642 667 586 722 q 794 722 697 722 l 961 722 q 1169 514 1169 722 l 1169 314 l 697 314 l 697 194 q 794 97 697 97 l 1142 97 l 1142 42 l 1086 0 l 794 0 q 642 56 697 0 q 489 0 586 0 l 308 0 q 100 208 100 0 m 211 194 q 308 97 211 97 l 489 97 q 586 194 586 97 l 586 528 q 489 625 586 625 l 308 625 q 211 528 211 625 l 211 194 m 697 411 l 1058 411 l 1058 528 q 961 625 1058 625 l 794 625 q 697 528 697 625 l 697 411 z "},"Ŕ":{"ha":889,"x_min":125,"x_max":819,"o":"m 125 0 l 125 958 l 579 958 q 792 746 792 958 l 792 593 q 638 385 792 413 l 819 28 l 804 0 l 706 0 l 513 381 l 242 381 l 242 0 l 125 0 m 242 486 l 581 486 q 675 581 675 486 l 675 758 q 581 853 675 853 l 242 853 l 242 486 m 353 1074 l 531 1275 l 603 1207 l 413 1017 l 353 1074 z "},"ŕ":{"ha":517,"x_min":106,"x_max":481,"o":"m 106 0 l 106 639 q 286 722 154 722 l 425 722 l 481 681 l 481 625 l 286 625 q 217 600 239 625 l 217 0 l 106 0 m 203 851 l 381 1053 l 453 985 l 263 794 l 203 851 z "},"Ŗ":{"ha":889,"x_min":125,"x_max":819,"o":"m 125 0 l 125 958 l 579 958 q 792 746 792 958 l 792 593 q 638 385 792 413 l 819 28 l 804 0 l 706 0 l 513 381 l 242 381 l 242 0 l 125 0 m 242 486 l 581 486 q 675 581 675 486 l 675 758 q 581 853 675 853 l 242 853 l 242 486 m 342 -256 l 386 -69 l 485 -69 l 497 -89 l 419 -278 l 342 -256 z "},"ŗ":{"ha":517,"x_min":64,"x_max":481,"o":"m 106 0 l 106 639 q 286 722 154 722 l 425 722 l 481 681 l 481 625 l 286 625 q 217 600 239 625 l 217 0 l 106 0 m 64 -256 l 108 -69 l 207 -69 l 219 -89 l 142 -278 l 64 -256 z "},"Ř":{"ha":889,"x_min":125,"x_max":819,"o":"m 125 0 l 125 958 l 579 958 q 792 746 792 958 l 792 593 q 638 385 792 413 l 819 28 l 804 0 l 706 0 l 513 381 l 242 381 l 242 0 l 125 0 m 242 486 l 581 486 q 675 581 675 486 l 675 758 q 581 853 675 853 l 242 853 l 242 486 m 247 1204 l 301 1261 l 439 1131 l 576 1261 l 631 1204 l 439 1017 l 247 1204 z "},"ř":{"ha":517,"x_min":97,"x_max":481,"o":"m 106 0 l 106 639 q 286 722 154 722 l 425 722 l 481 681 l 481 625 l 286 625 q 217 600 239 625 l 217 0 l 106 0 m 97 982 l 151 1039 l 289 908 l 426 1039 l 481 982 l 289 794 l 97 982 z "},"Ś":{"ha":806,"x_min":83,"x_max":722,"o":"m 83 49 l 83 106 l 511 106 q 606 200 606 106 l 606 314 q 535 407 606 393 l 236 467 q 83 672 83 497 l 83 746 q 296 958 83 958 l 632 958 l 694 910 l 694 853 l 294 853 q 200 758 200 853 l 200 664 q 271 571 200 585 l 569 511 q 722 306 722 481 l 722 213 q 510 0 722 0 l 146 0 l 83 49 m 317 1074 l 494 1275 l 567 1207 l 376 1017 l 317 1074 z "},"ś":{"ha":694,"x_min":83,"x_max":611,"o":"m 83 42 l 83 97 l 403 97 q 500 194 500 97 q 417 306 500 292 l 250 333 q 83 517 83 361 q 292 722 83 722 l 522 722 l 578 681 l 578 625 l 292 625 q 194 528 194 625 q 278 431 194 444 l 444 403 q 611 206 611 375 q 403 0 611 0 l 139 0 l 83 42 m 261 851 l 439 1053 l 511 985 l 321 794 l 261 851 z "},"Ş":{"ha":806,"x_min":83,"x_max":722,"o":"m 83 49 l 83 106 l 511 106 q 606 200 606 106 l 606 314 q 535 407 606 393 l 236 467 q 83 672 83 497 l 83 746 q 296 958 83 958 l 632 958 l 694 910 l 694 853 l 294 853 q 200 758 200 853 l 200 664 q 271 571 200 585 l 569 511 q 722 306 722 481 l 722 213 q 510 0 722 0 l 146 0 l 83 49 m 250 -169 l 389 -169 q 433 -125 433 -169 l 433 49 l 522 49 l 522 -111 q 383 -250 522 -250 l 294 -250 l 250 -215 l 250 -169 z "},"ş":{"ha":694,"x_min":83,"x_max":611,"o":"m 83 42 l 83 97 l 403 97 q 500 194 500 97 q 417 306 500 292 l 250 333 q 83 517 83 361 q 292 722 83 722 l 522 722 l 578 681 l 578 625 l 292 625 q 194 528 194 625 q 278 431 194 444 l 444 403 q 611 206 611 375 q 403 0 611 0 l 139 0 l 83 42 m 194 -169 l 333 -169 q 378 -125 378 -169 l 378 49 l 467 49 l 467 -111 q 328 -250 467 -250 l 239 -250 l 194 -215 l 194 -169 z "},"Š":{"ha":806,"x_min":83,"x_max":722,"o":"m 83 49 l 83 106 l 511 106 q 606 200 606 106 l 606 314 q 535 407 606 393 l 236 467 q 83 672 83 497 l 83 746 q 296 958 83 958 l 632 958 l 694 910 l 694 853 l 294 853 q 200 758 200 853 l 200 664 q 271 571 200 585 l 569 511 q 722 306 722 481 l 722 213 q 510 0 722 0 l 146 0 l 83 49 m 211 1204 l 265 1261 l 403 1131 l 540 1261 l 594 1204 l 403 1017 l 211 1204 z "},"š":{"ha":694,"x_min":83,"x_max":611,"o":"m 83 42 l 83 97 l 403 97 q 500 194 500 97 q 417 306 500 292 l 250 333 q 83 517 83 361 q 292 722 83 722 l 522 722 l 578 681 l 578 625 l 292 625 q 194 528 194 625 q 278 431 194 444 l 444 403 q 611 206 611 375 q 403 0 611 0 l 139 0 l 83 42 m 156 982 l 210 1039 l 347 908 l 485 1039 l 539 982 l 347 794 l 156 982 z "},"Ţ":{"ha":822,"x_min":33,"x_max":789,"o":"m 33 853 l 33 958 l 789 958 l 789 853 l 469 853 l 469 0 l 353 0 l 353 853 l 33 853 m 258 -169 l 397 -169 q 442 -125 442 -169 l 442 49 l 531 49 l 531 -111 q 392 -250 531 -250 l 303 -250 l 258 -215 l 258 -169 z "},"ţ":{"ha":544,"x_min":106,"x_max":494,"o":"m 106 208 l 106 958 l 217 958 l 217 722 l 481 722 l 481 625 l 217 625 l 217 194 q 314 97 217 97 l 494 97 l 494 42 l 439 0 l 314 0 q 106 208 106 0 m 158 -169 l 297 -169 q 342 -125 342 -169 l 342 49 l 431 49 l 431 -111 q 292 -250 431 -250 l 203 -250 l 158 -215 l 158 -169 z "},"Ť":{"ha":822,"x_min":33,"x_max":789,"o":"m 33 853 l 33 958 l 789 958 l 789 853 l 469 853 l 469 0 l 353 0 l 353 853 l 33 853 m 219 1204 l 274 1261 l 411 1131 l 549 1261 l 603 1204 l 411 1017 l 219 1204 z "},"ť":{"ha":544,"x_min":106,"x_max":494,"o":"m 106 208 l 106 958 l 217 958 l 217 722 l 481 722 l 481 625 l 217 625 l 217 194 q 314 97 217 97 l 494 97 l 494 42 l 439 0 l 314 0 q 106 208 106 0 m 314 836 l 361 1069 l 446 1069 l 458 1050 l 382 819 l 314 836 z "},"Ū":{"ha":956,"x_min":117,"x_max":839,"o":"m 117 213 l 117 958 l 233 958 l 233 200 q 328 106 233 106 l 628 106 q 722 200 722 106 l 722 958 l 839 958 l 839 213 q 626 0 839 0 l 329 0 q 117 213 117 0 m 297 1090 l 297 1179 l 658 1179 l 658 1090 l 297 1090 z "},"ū":{"ha":814,"x_min":106,"x_max":703,"o":"m 106 208 l 106 722 l 217 722 l 217 194 q 314 97 217 97 l 592 97 l 592 722 l 703 722 l 703 0 l 314 0 q 106 208 106 0 m 224 868 l 224 957 l 585 957 l 585 868 l 224 868 z "},"Ů":{"ha":956,"x_min":117,"x_max":839,"o":"m 117 213 l 117 958 l 233 958 l 233 200 q 328 106 233 106 l 628 106 q 722 200 722 106 l 722 958 l 839 958 l 839 213 q 626 0 839 0 l 329 0 q 117 213 117 0 m 336 1114 l 336 1192 q 433 1289 336 1289 l 522 1289 q 619 1192 619 1289 l 619 1114 q 522 1017 619 1017 l 433 1017 q 336 1114 336 1017 m 408 1108 q 436 1081 408 1081 l 519 1081 q 547 1108 547 1081 l 547 1197 q 519 1225 547 1225 l 436 1225 q 408 1197 408 1225 l 408 1108 z "},"ů":{"ha":814,"x_min":106,"x_max":703,"o":"m 106 208 l 106 722 l 217 722 l 217 194 q 314 97 217 97 l 592 97 l 592 722 l 703 722 l 703 0 l 314 0 q 106 208 106 0 m 263 892 l 263 969 q 360 1067 263 1067 l 449 1067 q 546 969 546 1067 l 546 892 q 449 794 546 794 l 360 794 q 263 892 263 794 m 335 886 q 363 858 335 858 l 446 858 q 474 886 474 858 l 474 975 q 446 1003 474 1003 l 363 1003 q 335 975 335 1003 l 335 886 z "},"Ű":{"ha":956,"x_min":117,"x_max":839,"o":"m 117 213 l 117 958 l 233 958 l 233 200 q 328 106 233 106 l 628 106 q 722 200 722 106 l 722 958 l 839 958 l 839 213 q 626 0 839 0 l 329 0 q 117 213 117 0 m 300 1068 l 456 1275 l 531 1214 l 361 1017 l 300 1068 m 529 1068 l 685 1275 l 760 1214 l 590 1017 l 529 1068 z "},"ű":{"ha":814,"x_min":106,"x_max":703,"o":"m 106 208 l 106 722 l 217 722 l 217 194 q 314 97 217 97 l 592 97 l 592 722 l 703 722 l 703 0 l 314 0 q 106 208 106 0 m 226 846 l 382 1053 l 457 992 l 288 794 l 226 846 m 456 846 l 611 1053 l 686 992 l 517 794 l 456 846 z "},"Ų":{"ha":956,"x_min":117,"x_max":839,"o":"m 117 213 l 117 958 l 233 958 l 233 200 q 328 106 233 106 l 628 106 q 722 200 722 106 l 722 958 l 839 958 l 839 213 q 626 0 839 0 l 329 0 q 117 213 117 0 m 428 -58 q 567 81 428 81 l 600 81 l 600 0 l 561 0 q 517 -44 517 0 l 517 -125 q 561 -169 517 -169 l 694 -169 l 694 -215 l 650 -250 l 567 -250 q 428 -111 428 -250 l 428 -58 z "},"ų":{"ha":814,"x_min":106,"x_max":703,"o":"m 106 208 l 106 722 l 217 722 l 217 194 q 314 97 217 97 l 592 97 l 592 722 l 703 722 l 703 0 l 314 0 q 106 208 106 0 m 436 -58 q 575 81 436 81 l 608 81 l 608 0 l 569 0 q 525 -44 525 0 l 525 -125 q 569 -169 525 -169 l 703 -169 l 703 -215 l 658 -250 l 575 -250 q 436 -111 436 -250 l 436 -58 z "},"Ÿ":{"ha":806,"x_min":28,"x_max":778,"o":"m 28 933 l 43 958 l 142 958 l 403 474 l 664 958 l 763 958 l 778 933 l 461 356 l 461 0 l 344 0 l 344 356 l 28 933 m 222 1075 l 222 1197 l 333 1197 l 333 1075 l 222 1075 m 472 1075 l 472 1197 l 583 1197 l 583 1075 l 472 1075 z "},"Ź":{"ha":833,"x_min":69,"x_max":764,"o":"m 69 0 l 69 93 l 606 853 l 83 853 l 83 958 l 750 958 l 750 865 l 214 106 l 764 106 l 764 0 l 69 0 m 331 1074 l 508 1275 l 581 1207 l 390 1017 l 331 1074 z "},"ź":{"ha":708,"x_min":69,"x_max":639,"o":"m 69 0 l 69 86 l 485 625 l 83 625 l 83 722 l 625 722 l 625 636 l 210 97 l 639 97 l 639 0 l 69 0 m 268 851 l 446 1053 l 518 985 l 328 794 l 268 851 z "},"Ż":{"ha":833,"x_min":69,"x_max":764,"o":"m 69 0 l 69 93 l 606 853 l 83 853 l 83 958 l 750 958 l 750 865 l 214 106 l 764 106 l 764 0 l 69 0 m 358 1075 l 358 1203 l 475 1203 l 475 1075 l 358 1075 z "},"ż":{"ha":708,"x_min":69,"x_max":639,"o":"m 69 0 l 69 86 l 485 625 l 83 625 l 83 722 l 625 722 l 625 636 l 210 97 l 639 97 l 639 0 l 69 0 m 296 853 l 296 981 l 413 981 l 413 853 l 296 853 z "},"Ž":{"ha":833,"x_min":69,"x_max":764,"o":"m 69 0 l 69 93 l 606 853 l 83 853 l 83 958 l 750 958 l 750 865 l 214 106 l 764 106 l 764 0 l 69 0 m 225 1204 l 279 1261 l 417 1131 l 554 1261 l 608 1204 l 417 1017 l 225 1204 z "},"ž":{"ha":708,"x_min":69,"x_max":639,"o":"m 69 0 l 69 86 l 485 625 l 83 625 l 83 722 l 625 722 l 625 636 l 210 97 l 639 97 l 639 0 l 69 0 m 163 982 l 217 1039 l 354 908 l 492 1039 l 546 982 l 354 794 l 163 982 z "},"ƒ":{"ha":792,"x_min":56,"x_max":653,"o":"m 56 -97 l 167 -97 q 264 0 264 -97 l 264 819 q 472 1028 264 1028 l 597 1028 l 653 986 l 653 931 l 472 931 q 375 833 375 931 l 375 722 l 639 722 l 639 625 l 375 625 l 375 14 q 167 -194 375 -194 l 111 -194 l 56 -153 l 56 -97 z "},"Ș":{"ha":806,"x_min":83,"x_max":722,"o":"m 83 49 l 83 106 l 511 106 q 606 200 606 106 l 606 314 q 535 407 606 393 l 236 467 q 83 672 83 497 l 83 746 q 296 958 83 958 l 632 958 l 694 910 l 694 853 l 294 853 q 200 758 200 853 l 200 664 q 271 571 200 585 l 569 511 q 722 306 722 481 l 722 213 q 510 0 722 0 l 146 0 l 83 49 m 306 -256 l 350 -69 l 449 -69 l 461 -89 l 383 -278 l 306 -256 z "},"ș":{"ha":694,"x_min":83,"x_max":611,"o":"m 83 42 l 83 97 l 403 97 q 500 194 500 97 q 417 306 500 292 l 250 333 q 83 517 83 361 q 292 722 83 722 l 522 722 l 578 681 l 578 625 l 292 625 q 194 528 194 625 q 278 431 194 444 l 444 403 q 611 206 611 375 q 403 0 611 0 l 139 0 l 83 42 m 250 -256 l 294 -69 l 393 -69 l 406 -89 l 328 -278 l 250 -256 z "},"Ț":{"ha":822,"x_min":33,"x_max":789,"o":"m 33 853 l 33 958 l 789 958 l 789 853 l 469 853 l 469 0 l 353 0 l 353 853 l 33 853 m 314 -256 l 358 -69 l 457 -69 l 469 -89 l 392 -278 l 314 -256 z "},"ț":{"ha":544,"x_min":106,"x_max":494,"o":"m 106 208 l 106 958 l 217 958 l 217 722 l 481 722 l 481 625 l 217 625 l 217 194 q 314 97 217 97 l 494 97 l 494 42 l 439 0 l 314 0 q 106 208 106 0 m 214 -256 l 258 -69 l 357 -69 l 369 -89 l 292 -278 l 214 -256 z "},"ȷ":{"ha":333,"x_min":-11,"x_max":222,"o":"m -11 -192 q 111 -67 111 -186 l 111 722 l 222 722 l 222 -56 q -11 -289 222 -289 l -11 -192 z "},"ˆ":{"ha":694,"x_min":156,"x_max":539,"o":"m 156 865 l 347 1053 l 539 865 l 485 808 l 347 939 l 210 808 l 156 865 z "},"ˇ":{"ha":694,"x_min":156,"x_max":539,"o":"m 156 982 l 210 1039 l 347 908 l 485 1039 l 539 982 l 347 794 l 156 982 z "},"ˉ":{"ha":694,"x_min":167,"x_max":528,"o":"m 167 868 l 167 957 l 528 957 l 528 868 l 167 868 z "},"˘":{"ha":694,"x_min":174,"x_max":521,"o":"m 174 931 l 174 1011 l 249 1011 l 249 931 q 274 906 249 906 l 421 906 q 446 931 446 906 l 446 1011 l 521 1011 l 521 931 q 421 831 521 831 l 274 831 q 174 931 174 831 z "},"˙":{"ha":694,"x_min":289,"x_max":406,"o":"m 289 853 l 289 981 l 406 981 l 406 853 l 289 853 z "},"˚":{"ha":694,"x_min":206,"x_max":489,"o":"m 206 892 l 206 969 q 303 1067 206 1067 l 392 1067 q 489 969 489 1067 l 489 892 q 392 794 489 794 l 303 794 q 206 892 206 794 m 278 886 q 306 858 278 858 l 389 858 q 417 886 417 858 l 417 975 q 389 1003 417 1003 l 306 1003 q 278 975 278 1003 l 278 886 z "},"˛":{"ha":694,"x_min":244,"x_max":511,"o":"m 244 -58 q 383 81 244 81 l 417 81 l 417 0 l 378 0 q 333 -44 333 0 l 333 -125 q 378 -169 333 -169 l 511 -169 l 511 -215 l 467 -250 l 383 -250 q 244 -111 244 -250 l 244 -58 z "},"˜":{"ha":694,"x_min":132,"x_max":563,"o":"m 132 886 l 207 961 q 278 992 238 992 q 349 961 318 992 l 393 917 q 417 906 404 906 q 440 917 429 906 l 508 985 l 563 931 l 488 856 q 417 825 457 825 q 346 856 376 825 l 301 900 q 278 911 290 911 q 254 900 265 911 l 186 832 l 132 886 z "},"˝":{"ha":694,"x_min":169,"x_max":629,"o":"m 169 846 l 325 1053 l 400 992 l 231 794 l 169 846 m 399 846 l 554 1053 l 629 992 l 460 794 l 399 846 z "},"̀":{"ha":0,"x_min":-561,"x_max":-311,"o":"m -561 985 l -489 1053 l -311 851 l -371 794 l -561 985 z "},"́":{"ha":0,"x_min":-483,"x_max":-233,"o":"m -483 851 l -306 1053 l -233 985 l -424 794 l -483 851 z "},"̂":{"ha":0,"x_min":-589,"x_max":-206,"o":"m -589 865 l -397 1053 l -206 865 l -260 808 l -397 939 l -535 808 l -589 865 z "},"̃":{"ha":0,"x_min":-612,"x_max":-182,"o":"m -612 886 l -537 961 q -467 992 -507 992 q -396 961 -426 992 l -351 917 q -328 906 -340 906 q -304 917 -315 906 l -236 985 l -182 931 l -257 856 q -328 825 -287 825 q -399 856 -368 825 l -443 900 q -467 911 -454 911 q -490 900 -479 911 l -558 832 l -612 886 z "},"̄":{"ha":0,"x_min":-578,"x_max":-217,"o":"m -578 868 l -578 957 l -217 957 l -217 868 l -578 868 z "},"̆":{"ha":0,"x_min":-571,"x_max":-224,"o":"m -571 931 l -571 1011 l -496 1011 l -496 931 q -471 906 -496 906 l -324 906 q -299 931 -299 906 l -299 1011 l -224 1011 l -224 931 q -324 831 -224 831 l -471 831 q -571 931 -571 831 z "},"̇":{"ha":0,"x_min":-456,"x_max":-339,"o":"m -456 853 l -456 981 l -339 981 l -339 853 l -456 853 z "},"̈":{"ha":0,"x_min":-578,"x_max":-217,"o":"m -578 853 l -578 975 l -467 975 l -467 853 l -578 853 m -328 853 l -328 975 l -217 975 l -217 853 l -328 853 z "},"̊":{"ha":0,"x_min":-539,"x_max":-256,"o":"m -539 892 l -539 969 q -442 1067 -539 1067 l -353 1067 q -256 969 -256 1067 l -256 892 q -353 794 -256 794 l -442 794 q -539 892 -539 794 m -467 886 q -439 858 -467 858 l -356 858 q -328 886 -328 858 l -328 975 q -356 1003 -328 1003 l -439 1003 q -467 975 -467 1003 l -467 886 z "},"̋":{"ha":0,"x_min":-575,"x_max":-115,"o":"m -575 846 l -419 1053 l -344 992 l -514 794 l -575 846 m -346 846 l -190 1053 l -115 992 l -285 794 l -346 846 z "},"̌":{"ha":0,"x_min":-589,"x_max":-206,"o":"m -589 982 l -535 1039 l -397 908 l -260 1039 l -206 982 l -397 794 l -589 982 z "},"̦":{"ha":0,"x_min":-494,"x_max":-339,"o":"m -494 -256 l -450 -69 l -351 -69 l -339 -89 l -417 -278 l -494 -256 z "},"̧":{"ha":0,"x_min":-550,"x_max":-278,"o":"m -550 -169 l -411 -169 q -367 -125 -367 -169 l -367 49 l -278 49 l -278 -111 q -417 -250 -278 -250 l -506 -250 l -550 -215 l -550 -169 z "},"̨":{"ha":0,"x_min":-500,"x_max":-233,"o":"m -500 -58 q -361 81 -500 81 l -328 81 l -328 0 l -367 0 q -411 -44 -411 0 l -411 -125 q -367 -169 -411 -169 l -233 -169 l -233 -215 l -278 -250 l -361 -250 q -500 -111 -500 -250 l -500 -58 z "},"π":{"ha":819,"x_min":111,"x_max":708,"o":"m 111 0 l 111 722 l 708 722 l 708 0 l 597 0 l 597 625 l 222 625 l 222 0 l 111 0 z "},"ẞ":{"ha":950,"x_min":117,"x_max":867,"o":"m 117 0 l 117 746 q 329 958 117 958 l 783 958 l 783 865 l 550 556 l 654 556 q 867 343 867 556 l 867 213 q 654 0 867 0 l 443 0 l 381 49 l 381 106 l 656 106 q 750 200 750 106 l 750 356 q 656 450 750 450 l 408 450 l 408 543 l 642 853 l 328 853 q 233 758 233 853 l 233 0 l 117 0 z "},"–":{"ha":806,"x_min":56,"x_max":750,"o":"m 56 375 l 56 472 l 750 472 l 750 375 l 56 375 z "},"—":{"ha":1389,"x_min":56,"x_max":1333,"o":"m 56 375 l 56 472 l 1333 472 l 1333 375 l 56 375 z "},"‘":{"ha":361,"x_min":83,"x_max":292,"o":"m 83 714 l 208 1042 l 292 1021 l 210 694 l 96 694 l 83 714 z "},"’":{"ha":361,"x_min":78,"x_max":286,"o":"m 78 701 l 160 1028 l 274 1028 l 286 1008 l 161 681 l 78 701 z "},"‚":{"ha":361,"x_min":44,"x_max":253,"o":"m 44 -174 l 126 153 l 240 153 l 253 133 l 128 -194 l 44 -174 z "},"“":{"ha":611,"x_min":83,"x_max":542,"o":"m 83 714 l 208 1042 l 292 1021 l 210 694 l 96 694 l 83 714 m 333 714 l 458 1042 l 542 1021 l 460 694 l 346 694 l 333 714 z "},"”":{"ha":611,"x_min":78,"x_max":536,"o":"m 78 701 l 160 1028 l 274 1028 l 286 1008 l 161 681 l 78 701 m 328 701 l 410 1028 l 524 1028 l 536 1008 l 411 681 l 328 701 z "},"„":{"ha":611,"x_min":44,"x_max":503,"o":"m 44 -174 l 126 153 l 240 153 l 253 133 l 128 -194 l 44 -174 m 294 -174 l 376 153 l 490 153 l 503 133 l 378 -194 l 294 -174 z "},"†":{"ha":681,"x_min":69,"x_max":611,"o":"m 69 583 l 69 681 l 289 681 l 289 958 l 392 958 l 392 681 l 611 681 l 611 583 l 392 583 l 392 -139 l 289 -139 l 289 583 l 69 583 z "},"‡":{"ha":681,"x_min":69,"x_max":611,"o":"m 69 139 l 69 236 l 289 236 l 289 583 l 69 583 l 69 681 l 289 681 l 289 958 l 392 958 l 392 681 l 611 681 l 611 583 l 392 583 l 392 236 l 611 236 l 611 139 l 392 139 l 392 -139 l 289 -139 l 289 139 l 69 139 z "},"•":{"ha":500,"x_min":111,"x_max":389,"o":"m 111 361 l 111 639 l 389 639 l 389 361 l 111 361 z "},"…":{"ha":1083,"x_min":111,"x_max":972,"o":"m 111 0 l 111 153 l 250 153 l 250 0 l 111 0 m 472 0 l 472 153 l 611 153 l 611 0 l 472 0 m 833 0 l 833 153 l 972 153 l 972 0 l 833 0 z "},"‰":{"ha":1681,"x_min":56,"x_max":1625,"o":"m 56 528 l 56 819 q 194 958 56 958 l 306 958 q 444 819 444 958 l 444 528 q 306 389 444 389 l 194 389 q 56 528 56 389 m 144 514 q 189 469 144 469 l 311 469 q 356 514 356 469 l 356 833 q 311 878 356 878 l 189 878 q 144 833 144 878 l 144 514 m 326 42 l 785 958 l 868 917 l 410 0 l 326 42 z "},"‹":{"ha":417,"x_min":42,"x_max":361,"o":"m 42 438 l 290 750 l 361 692 l 165 438 l 361 183 l 290 125 l 42 438 z "},"›":{"ha":417,"x_min":56,"x_max":375,"o":"m 56 183 l 251 438 l 56 692 l 126 750 l 375 438 l 126 125 l 56 183 z "},"⁄":{"ha":194,"x_min":-174,"x_max":368,"o":"m -174 42 l 285 958 l 368 917 l -90 0 l -174 42 z "},"⁰":{"ha":500,"x_min":56,"x_max":444,"o":"m 56 528 l 56 819 q 194 958 56 958 l 306 958 q 444 819 444 958 l 444 528 q 306 389 444 389 l 194 389 q 56 528 56 389 m 144 514 q 189 469 144 469 l 311 469 q 356 514 356 469 l 356 833 q 311 878 356 878 l 189 878 q 144 833 144 878 l 144 514 z "},"⁴":{"ha":500,"x_min":56,"x_max":444,"o":"m 56 489 l 56 563 l 242 958 l 319 958 l 331 939 l 157 569 l 356 569 l 356 750 l 444 750 l 444 389 l 356 389 l 356 489 l 56 489 z "},"₀":{"ha":500,"x_min":56,"x_max":444,"o":"m 56 139 l 56 431 q 194 569 56 569 l 306 569 q 444 431 444 569 l 444 139 q 306 0 444 0 l 194 0 q 56 139 56 0 m 144 125 q 189 81 144 81 l 311 81 q 356 125 356 81 l 356 444 q 311 489 356 489 l 189 489 q 144 444 144 489 l 144 125 z "},"₁":{"ha":500,"x_min":81,"x_max":436,"o":"m 81 0 l 81 81 l 221 81 l 221 489 l 110 489 l 110 535 l 154 569 l 310 569 l 310 81 l 436 81 l 436 0 l 81 0 z "},"₂":{"ha":500,"x_min":56,"x_max":444,"o":"m 56 0 l 56 171 q 160 304 56 283 l 313 335 q 356 385 356 343 l 356 444 q 311 489 356 489 l 72 489 l 72 535 l 117 569 l 306 569 q 444 431 444 569 l 444 389 q 340 256 444 276 l 188 225 q 144 175 144 217 l 144 81 l 444 81 l 444 0 l 56 0 z "},"₃":{"ha":500,"x_min":64,"x_max":444,"o":"m 64 35 l 64 81 l 311 81 q 356 125 356 81 l 356 208 q 311 253 356 253 l 125 253 l 125 333 l 311 333 q 356 378 356 333 l 356 444 q 311 489 356 489 l 72 489 l 72 535 l 117 569 l 306 569 q 444 431 444 569 l 444 389 q 421 328 444 351 l 389 296 l 421 264 q 444 203 444 240 l 444 139 q 306 0 444 0 l 108 0 l 64 35 z "},"₄":{"ha":500,"x_min":56,"x_max":444,"o":"m 56 100 l 56 174 l 242 569 l 319 569 l 331 550 l 157 181 l 356 181 l 356 361 l 444 361 l 444 0 l 356 0 l 356 100 l 56 100 z "},"€":{"ha":803,"x_min":47,"x_max":742,"o":"m 47 340 l 47 426 l 144 426 l 144 532 l 47 532 l 47 618 l 144 618 l 144 746 q 357 958 144 958 l 679 958 l 742 910 l 742 853 l 356 853 q 261 758 261 853 l 261 618 l 639 618 l 639 532 l 261 532 l 261 426 l 578 426 l 578 340 l 261 340 l 261 200 q 356 106 261 106 l 742 106 l 742 49 l 679 0 l 357 0 q 144 213 144 0 l 144 340 l 47 340 z "},"₺":{"ha":803,"x_min":33,"x_max":728,"o":"m 33 422 l 172 478 l 172 579 l 65 536 l 33 617 l 172 672 l 172 958 l 289 958 l 289 719 l 553 825 l 585 744 l 289 626 l 289 525 l 553 631 l 585 550 l 289 432 l 289 106 l 388 106 q 617 335 617 106 l 617 417 l 728 417 l 728 347 q 381 0 728 0 l 172 0 l 172 385 l 65 342 l 33 422 z "},"₽":{"ha":803,"x_min":61,"x_max":728,"o":"m 61 242 l 61 333 l 131 333 l 131 431 l 61 431 l 61 528 l 131 528 l 131 958 l 515 958 q 728 746 728 958 l 728 643 q 515 431 728 431 l 247 431 l 247 333 l 553 333 l 553 242 l 247 242 l 247 0 l 131 0 l 131 242 l 61 242 m 247 528 l 517 528 q 611 622 611 528 l 611 758 q 517 853 611 853 l 247 853 l 247 528 z "},"ℓ":{"ha":361,"x_min":106,"x_max":314,"o":"m 106 197 l 106 1028 l 217 1028 l 217 186 q 314 86 217 92 l 314 -11 q 106 197 106 -11 z "},"™":{"ha":1086,"x_min":28,"x_max":1003,"o":"m 28 883 l 28 958 l 422 958 l 422 883 l 267 883 l 267 472 l 183 472 l 183 883 l 28 883 m 492 472 l 492 958 l 596 958 l 747 635 l 899 958 l 1003 958 l 1003 472 l 919 472 l 919 821 l 785 533 l 710 533 l 575 821 l 575 472 l 492 472 z "},"Ω":{"ha":972,"x_min":83,"x_max":889,"o":"m 83 0 l 83 106 l 261 106 l 157 244 q 111 383 111 306 l 111 746 q 324 958 111 958 l 649 958 q 861 746 861 958 l 861 383 q 815 244 861 306 l 711 106 l 889 106 l 889 0 l 569 0 l 569 94 l 711 283 q 744 383 744 328 l 744 758 q 650 853 744 853 l 322 853 q 228 758 228 853 l 228 383 q 261 283 228 328 l 403 94 l 403 0 l 83 0 z "},"℮":{"ha":1222,"x_min":83,"x_max":1139,"o":"m 238 126 q 161 199 238 126 q 83 479 83 272 q 238 833 83 686 q 611 979 393 979 q 984 833 829 979 q 1139 451 1139 686 l 278 451 l 278 176 q 611 35 424 35 q 954 185 799 35 l 999 139 q 611 -21 829 -21 q 238 126 393 -21 m 278 507 l 944 507 l 944 782 q 611 924 799 924 q 278 782 424 924 l 278 507 z "},"∂":{"ha":803,"x_min":100,"x_max":697,"o":"m 100 208 l 100 431 q 308 639 100 639 l 586 639 l 586 733 q 389 931 586 931 l 161 931 l 161 986 l 217 1028 l 386 1028 q 697 717 697 1028 l 697 208 q 489 0 697 0 l 308 0 q 100 208 100 0 m 211 194 q 308 97 211 97 l 489 97 q 586 194 586 97 l 586 542 l 308 542 q 211 444 211 542 l 211 194 z "},"∆":{"ha":889,"x_min":28,"x_max":861,"o":"m 28 25 l 349 958 l 540 958 l 861 25 l 844 0 l 44 0 l 28 25 m 174 106 l 715 106 l 461 853 l 428 853 l 174 106 z "},"∏":{"ha":972,"x_min":125,"x_max":847,"o":"m 125 -139 l 125 958 l 847 958 l 847 -139 l 731 -139 l 731 853 l 242 853 l 242 -139 l 125 -139 z "},"∑":{"ha":806,"x_min":69,"x_max":736,"o":"m 69 -46 l 389 410 l 69 865 l 69 958 l 736 958 l 736 853 l 211 853 l 521 410 l 211 -33 l 736 -33 l 736 -139 l 69 -139 l 69 -46 z "},"−":{"ha":803,"x_min":89,"x_max":714,"o":"m 89 417 l 89 514 l 714 514 l 714 417 l 89 417 z "},"∕":{"ha":194,"x_min":-174,"x_max":368,"o":"m -174 42 l 285 958 l 368 917 l -90 0 l -174 42 z "},"∙":{"ha":361,"x_min":111,"x_max":250,"o":"m 111 389 l 111 542 l 250 542 l 250 389 l 111 389 z "},"√":{"ha":806,"x_min":28,"x_max":806,"o":"m 28 467 l 28 556 l 232 556 l 379 117 l 718 1097 l 806 1067 l 428 -14 l 325 -14 l 160 467 l 28 467 z "},"∞":{"ha":847,"x_min":56,"x_max":792,"o":"m 56 396 l 56 535 q 194 674 56 674 l 324 674 q 424 626 376 674 q 524 674 471 674 l 653 674 q 792 535 792 674 l 792 396 q 653 257 792 257 l 524 257 q 424 304 471 257 q 324 257 376 257 l 194 257 q 56 396 56 257 m 144 382 q 189 338 144 338 l 335 338 q 379 382 379 338 l 379 549 q 335 593 379 593 l 189 593 q 144 549 144 593 l 144 382 m 468 382 q 513 338 468 338 l 658 338 q 703 382 703 338 l 703 549 q 658 593 703 593 l 513 593 q 468 549 468 593 l 468 382 z "},"∫":{"ha":583,"x_min":28,"x_max":556,"o":"m 28 -181 l 139 -181 q 236 -83 236 -181 l 236 819 q 444 1028 236 1028 l 500 1028 l 556 986 l 556 931 l 444 931 q 347 833 347 931 l 347 -69 q 139 -278 347 -278 l 83 -278 l 28 -236 l 28 -181 z "},"≈":{"ha":803,"x_min":68,"x_max":735,"o":"m 68 271 l 192 394 q 290 438 235 438 q 389 394 346 438 l 472 311 q 513 290 493 290 q 553 311 532 290 l 665 424 l 735 354 l 611 231 q 513 188 568 188 q 414 231 457 188 l 331 314 q 290 335 310 335 q 250 314 271 335 l 138 201 l 68 271 m 68 576 l 192 700 q 290 743 235 743 q 389 700 346 743 l 472 617 q 513 596 493 596 q 553 617 532 596 l 665 729 l 735 660 l 611 536 q 513 493 568 493 q 414 536 457 493 l 331 619 q 290 640 310 640 q 250 619 271 640 l 138 507 l 68 576 z "},"≠":{"ha":803,"x_min":89,"x_max":714,"o":"m 89 264 l 89 361 l 299 361 l 404 569 l 89 569 l 89 667 l 454 667 l 542 840 l 621 800 l 554 667 l 714 667 l 714 569 l 504 569 l 399 361 l 714 361 l 714 264 l 349 264 l 261 90 l 182 131 l 249 264 l 89 264 z "},"≤":{"ha":803,"x_min":89,"x_max":714,"o":"m 89 0 l 89 97 l 714 97 l 714 0 l 89 0 m 89 439 l 89 547 l 672 826 l 714 739 l 189 493 l 714 247 l 672 160 l 89 439 z "},"≥":{"ha":803,"x_min":89,"x_max":714,"o":"m 89 0 l 89 97 l 714 97 l 714 0 l 89 0 m 89 247 l 614 493 l 89 739 l 131 826 l 714 547 l 714 439 l 131 160 l 89 247 z "},"◊":{"ha":803,"x_min":75,"x_max":728,"o":"m 75 479 l 350 958 l 453 958 l 728 479 l 453 0 l 350 0 l 75 479 m 178 479 l 401 89 l 625 479 l 401 869 l 178 479 z "},"":{"ha":972,"x_min":69,"x_max":903,"o":"m 69 840 l 903 840 l 486 118 l 69 840 z "},"ﬁ":{"ha":861,"x_min":111,"x_max":753,"o":"m 111 0 l 111 819 q 319 1028 111 1028 l 444 1028 l 500 986 l 500 931 l 319 931 q 222 833 222 931 l 222 722 l 486 722 l 486 625 l 222 625 l 222 0 l 111 0 m 636 853 l 636 981 l 753 981 l 753 853 l 636 853 m 639 0 l 639 722 l 750 722 l 750 0 l 639 0 z "},"ﬂ":{"ha":889,"x_min":111,"x_max":842,"o":"m 111 0 l 111 819 q 319 1028 111 1028 l 444 1028 l 500 986 l 500 931 l 319 931 q 222 833 222 931 l 222 722 l 486 722 l 486 625 l 222 625 l 222 0 l 111 0 m 633 197 l 633 1028 l 744 1028 l 744 186 q 842 86 744 92 l 842 -11 q 633 197 633 -11 z "}}}
